<svg width="278" height="275" viewBox="0 0 278 275" fill="none" xmlns="http://www.w3.org/2000/svg">
<path d="M86.3722 106.56C85.0268 106.203 84.3775 105.799 84.4243 105.35L84.7299 102.242L81.0418 101.263L79.3394 103.876C79.0751 104.317 78.247 104.353 76.8552 103.983C76.1129 103.786 75.5778 103.603 75.2498 103.433C74.9273 103.249 74.7744 103.134 74.791 103.089L84.5181 88.9346C84.5624 88.8145 85.6439 89.0357 87.7624 89.5983C89.881 90.1608 90.9182 90.5022 90.8739 90.6223L89.2571 106.955C89.2184 107.06 88.8322 107.048 88.0988 106.919C87.3653 106.79 86.7898 106.671 86.3722 106.56ZM82.6762 98.5571L85.1118 99.2038L85.7868 94.2654L85.6476 94.2285L82.6762 98.5571ZM102.202 93.5561C102.285 93.3309 102.937 93.3805 104.159 93.7049C104.576 93.8158 105.045 93.9731 105.564 94.1768C106.104 94.3697 106.357 94.5112 106.324 94.6012L101.948 106.468L102.76 106.684C103.147 106.786 103.277 107.192 103.152 107.9C103.111 108.104 103.027 108.378 102.899 108.723C102.777 109.054 102.52 109.43 102.126 109.853C101.573 110.431 100.957 110.63 100.276 110.45C99.7659 110.314 99.3457 110.095 99.0156 109.793C98.7009 109.496 98.5128 109.223 98.4511 108.976L98.3503 108.628C97.2064 109.198 95.9927 109.312 94.7091 108.971C93.4256 108.63 92.5186 107.821 91.9882 106.543C91.4578 105.265 91.533 103.703 92.2139 101.856C92.9003 99.9946 93.9084 98.6883 95.238 97.9371C96.5732 97.1709 97.9599 96.9787 99.3981 97.3606C99.8156 97.4714 100.224 97.6294 100.624 97.8345L102.202 93.5561ZM98.5798 101.099C97.7138 100.869 97.0013 101.512 96.4422 103.028C96.1599 103.794 96.0788 104.382 96.1989 104.793C96.3245 105.189 96.5343 105.426 96.8281 105.504C97.1374 105.586 97.4782 105.537 97.8507 105.355L99.2623 101.527C99.0547 101.307 98.8272 101.165 98.5798 101.099ZM115.317 97.0388C115.4 96.8136 116.053 96.8632 117.274 97.1876C117.692 97.2985 118.16 97.4558 118.679 97.6596C119.22 97.8525 119.473 97.9939 119.44 98.084L115.064 109.951L115.876 110.166C116.262 110.269 116.393 110.675 116.268 111.383C116.227 111.586 116.142 111.861 116.015 112.206C115.893 112.536 115.636 112.913 115.242 113.336C114.689 113.914 114.072 114.113 113.392 113.932C112.882 113.797 112.461 113.578 112.131 113.276C111.817 112.978 111.629 112.706 111.567 112.459L111.466 112.111C110.322 112.68 109.108 112.795 107.825 112.454C106.541 112.113 105.634 111.304 105.104 110.026C104.574 108.748 104.649 107.185 105.33 105.339C106.016 103.477 107.024 102.171 108.354 101.42C109.689 100.654 111.076 100.461 112.514 100.843C112.931 100.954 113.34 101.112 113.74 101.317L115.317 97.0388ZM111.696 104.582C110.83 104.352 110.117 104.995 109.558 106.511C109.276 107.277 109.195 107.865 109.315 108.276C109.44 108.672 109.65 108.909 109.944 108.987C110.253 109.069 110.594 109.019 110.966 108.838L112.378 105.01C112.171 104.79 111.943 104.647 111.696 104.582ZM125.649 107.966C125.493 107.1 125.501 106.435 125.673 105.969C125.85 105.489 126.095 105.216 126.407 105.151C127.427 105.009 128.703 105.142 130.234 105.549C131.78 105.959 132.74 106.601 133.114 107.475C133.493 108.334 133.431 109.447 132.927 110.813L131.615 114.371L132.404 114.58C132.667 114.65 132.813 114.853 132.841 115.191C132.885 115.532 132.81 115.965 132.616 116.491C132.423 117.016 132.093 117.497 131.626 117.934C131.175 118.374 130.717 118.533 130.253 118.41C129.418 118.188 128.826 117.792 128.476 117.221C128.311 116.979 128.213 116.714 128.183 116.426C127.151 117.108 125.885 117.25 124.385 116.851C123.256 116.552 122.449 115.909 121.963 114.923C121.478 113.937 121.432 112.911 121.825 111.845C122.727 109.398 124.686 108.575 127.702 109.376L128.977 109.715L129.06 109.489C129.204 109.099 129.226 108.833 129.126 108.691C129.046 108.538 128.767 108.398 128.288 108.271C127.7 108.114 126.821 108.013 125.649 107.966ZM125.977 112.602C125.856 112.932 125.854 113.212 125.973 113.441C126.098 113.656 126.3 113.8 126.578 113.874C126.872 113.952 127.176 113.909 127.491 113.745L128.131 112.011L127.481 111.839C126.739 111.642 126.238 111.896 125.977 112.602ZM138.055 120.086C138.016 120.191 137.44 120.096 136.327 119.8C134.797 119.344 134.054 119.056 134.098 118.936L136.789 111.64L136.186 111.48C135.784 111.374 135.642 110.973 135.762 110.28C135.803 110.077 135.86 109.877 135.932 109.682C136.103 109.217 136.368 108.776 136.725 108.36C137.247 107.773 137.802 107.558 138.389 107.714C138.977 107.87 139.453 108.145 139.817 108.538C140.181 108.932 140.391 109.284 140.446 109.595C141.719 109.043 143.029 108.946 144.374 109.303C145.719 109.661 146.563 110.272 146.906 111.138C147.249 112.004 147.125 113.24 146.532 114.846L144.041 121.601C143.975 121.781 143.277 121.695 141.947 121.342C140.632 120.993 140.008 120.728 140.075 120.548L142.474 114.04C142.751 113.29 142.619 112.842 142.078 112.699C141.923 112.658 141.682 112.668 141.354 112.729C141.031 112.775 140.82 112.818 140.72 112.857L138.055 120.086ZM157.564 108.257C157.647 108.032 158.3 108.081 159.521 108.406C159.939 108.517 160.407 108.674 160.926 108.878C161.466 109.071 161.72 109.212 161.687 109.302L157.311 121.169L158.123 121.385C158.509 121.487 158.64 121.893 158.514 122.601C158.473 122.805 158.389 123.079 158.262 123.424C158.14 123.754 157.882 124.131 157.489 124.554C156.936 125.132 156.319 125.331 155.639 125.15C155.129 125.015 154.708 124.796 154.378 124.494C154.064 124.197 153.875 123.924 153.814 123.677L153.713 123.329C152.569 123.899 151.355 124.013 150.072 123.672C148.788 123.331 147.881 122.522 147.351 121.244C146.82 119.966 146.896 118.403 147.577 116.557C148.263 114.696 149.271 113.389 150.601 112.638C151.936 111.872 153.323 111.68 154.761 112.061C155.178 112.172 155.587 112.33 155.987 112.535L157.564 108.257ZM153.942 115.8C153.076 115.57 152.364 116.213 151.805 117.729C151.523 118.495 151.441 119.083 151.562 119.494C151.687 119.89 151.897 120.127 152.191 120.205C152.5 120.287 152.841 120.238 153.213 120.056L154.625 116.228C154.417 116.008 154.19 115.866 153.942 115.8ZM169.284 122.395C168.742 123.867 169.043 124.754 170.187 125.058C170.929 125.255 171.6 125.277 172.201 125.123C172.432 125.184 172.474 125.624 172.325 126.442C172.198 127.248 172.081 127.794 171.976 128.079C171.877 128.35 171.771 128.52 171.661 128.589C170.659 128.867 169.446 128.817 168.023 128.439C166.601 128.061 165.575 127.229 164.946 125.941C164.339 124.642 164.361 123.107 165.014 121.336C165.673 119.549 166.692 118.238 168.07 117.4C169.464 116.567 170.973 116.366 172.596 116.798C174.236 117.233 175.231 117.917 175.583 118.851C175.661 119.053 175.639 119.32 175.517 119.65C175.401 119.965 175.195 120.339 174.9 120.772C174.268 121.658 173.699 122.117 173.195 122.148C173.128 122.147 173.033 122.13 172.909 122.097C172.801 122.068 172.695 121.941 172.591 121.716C172.204 120.97 171.825 120.548 171.453 120.45C171.098 120.355 170.722 120.453 170.326 120.744C169.931 121.034 169.583 121.585 169.284 122.395ZM177.184 130.451C177.134 130.586 176.46 130.481 175.161 130.136C173.877 129.796 173.274 129.52 173.352 129.31L179.04 113.885C179.078 113.78 179.346 113.769 179.842 113.851C180.338 113.933 180.748 114.018 181.073 114.104C182.372 114.449 182.971 114.756 182.872 115.026L181.211 119.53C182.171 119.505 182.875 119.552 183.324 119.671C184.499 119.983 185.314 120.537 185.767 121.333C186.226 122.114 186.151 123.331 185.542 124.982L182.968 131.962C182.918 132.098 182.29 132.005 181.084 131.685C179.74 131.278 179.087 131.022 179.126 130.917L181.567 124.297C181.838 123.562 181.726 123.128 181.232 122.997C180.891 122.906 180.439 122.959 179.874 123.155L177.184 130.451ZM189.348 124.88C189.192 124.014 189.2 123.349 189.371 122.884C189.548 122.403 189.793 122.13 190.106 122.065C191.126 121.924 192.401 122.056 193.932 122.463C195.479 122.874 196.439 123.516 196.813 124.39C197.192 125.249 197.13 126.361 196.626 127.727L195.314 131.285L196.103 131.495C196.366 131.564 196.511 131.768 196.54 132.105C196.584 132.446 196.509 132.88 196.315 133.405C196.121 133.931 195.791 134.412 195.325 134.848C194.874 135.289 194.416 135.447 193.952 135.324C193.117 135.102 192.525 134.706 192.175 134.135C192.009 133.893 191.912 133.629 191.882 133.341C190.85 134.022 189.584 134.164 188.084 133.766C186.955 133.466 186.148 132.823 185.662 131.837C185.177 130.851 185.131 129.825 185.524 128.76C186.426 126.313 188.385 125.49 191.4 126.29L192.676 126.629L192.759 126.404C192.903 126.014 192.925 125.747 192.825 125.605C192.745 125.452 192.466 125.312 191.986 125.185C191.399 125.029 190.519 124.927 189.348 124.88ZM189.676 129.516C189.554 129.846 189.553 130.126 189.672 130.356C189.797 130.57 189.998 130.714 190.277 130.788C190.571 130.866 190.875 130.823 191.19 130.66L191.829 128.926L191.18 128.753C190.438 128.556 189.936 128.811 189.676 129.516ZM201.754 137C201.715 137.105 201.139 137.01 200.025 136.714C198.496 136.259 197.753 135.971 197.797 135.851L200.488 128.555L199.884 128.395C199.482 128.288 199.341 127.888 199.461 127.195C199.502 126.991 199.559 126.792 199.631 126.597C199.802 126.131 200.067 125.691 200.424 125.275C200.946 124.688 201.5 124.473 202.088 124.629C202.676 124.785 203.152 125.059 203.516 125.453C203.88 125.846 204.09 126.199 204.145 126.51C205.418 125.958 206.727 125.861 208.073 126.218C209.418 126.575 210.262 127.187 210.605 128.052C210.948 128.918 210.823 130.154 210.231 131.76L207.74 138.516C207.674 138.696 206.975 138.609 205.646 138.256C204.331 137.907 203.707 137.642 203.774 137.462L206.173 130.955C206.45 130.204 206.318 129.757 205.777 129.613C205.622 129.572 205.38 129.582 205.052 129.643C204.73 129.69 204.519 129.732 204.419 129.772L201.754 137ZM213.9 140.374C212.4 139.975 211.412 139.202 210.935 138.054C210.465 136.89 210.567 135.393 211.242 133.562C211.923 131.715 212.988 130.416 214.437 129.663C215.907 128.9 217.531 128.754 219.309 129.226C221.103 129.703 222.439 130.478 223.316 131.551L219.181 142.765C218.772 143.876 217.995 144.601 216.851 144.94C215.702 145.294 214.401 145.278 212.947 144.892C211.493 144.506 210.261 143.981 209.249 143.317C209.227 142.916 209.269 142.572 209.374 142.287C209.729 141.326 210.151 140.664 210.642 140.3C211.518 141.01 212.543 141.522 213.718 141.834C214.569 142.059 215.102 141.88 215.318 141.294L215.567 140.619C214.858 140.562 214.302 140.481 213.9 140.374ZM217.84 132.866C216.804 132.591 216.006 133.211 215.447 134.728C215.098 135.673 215.073 136.342 215.369 136.734C215.56 136.999 215.787 137.167 216.05 137.236C216.313 137.306 216.553 137.345 216.771 137.354L218.349 133.075C218.18 132.981 218.01 132.911 217.84 132.866ZM230.585 144.137C229.406 144.433 228.051 144.379 226.52 143.972C224.989 143.566 223.883 142.72 223.202 141.435C222.527 140.135 222.519 138.591 223.178 136.805C223.842 135.004 224.879 133.688 226.288 132.859C227.713 132.035 229.198 131.828 230.745 132.238C232.291 132.649 233.341 133.348 233.893 134.335C234.462 135.327 234.544 136.37 234.14 137.466C233.243 139.898 231.356 140.732 228.48 139.968L226.879 139.543C226.713 139.994 226.721 140.342 226.902 140.588C227.104 140.823 227.452 141.006 227.947 141.137C229.03 141.425 230.147 141.457 231.298 141.236C231.319 141.225 231.35 141.348 231.39 141.606C231.524 142.351 231.507 142.948 231.341 143.398C231.18 143.833 230.928 144.08 230.585 144.137ZM230.085 136.859C230.317 136.229 230.117 135.829 229.483 135.661C229.189 135.583 228.9 135.605 228.618 135.728C228.356 135.84 228.164 136.061 228.042 136.391L227.785 137.089L229.037 137.421C229.547 137.557 229.897 137.37 230.085 136.859ZM117.526 136.465C116.984 137.936 117.285 138.823 118.429 139.127C119.171 139.324 119.842 139.346 120.442 139.192C120.674 139.254 120.716 139.693 120.567 140.511C120.44 141.318 120.323 141.864 120.218 142.149C120.118 142.419 120.013 142.589 119.903 142.658C118.901 142.936 117.688 142.886 116.265 142.508C114.843 142.131 113.817 141.298 113.188 140.01C112.58 138.711 112.603 137.176 113.256 135.405C113.915 133.619 114.934 132.307 116.312 131.47C117.706 130.637 119.215 130.436 120.838 130.867C122.477 131.302 123.473 131.987 123.825 132.921C123.903 133.123 123.881 133.389 123.759 133.719C123.643 134.034 123.437 134.408 123.142 134.841C122.509 135.728 121.941 136.187 121.437 136.218C121.37 136.216 121.274 136.199 121.151 136.166C121.042 136.138 120.936 136.011 120.833 135.785C120.446 135.04 120.066 134.618 119.695 134.519C119.34 134.425 118.964 134.523 118.568 134.813C118.172 135.103 117.825 135.654 117.526 136.465ZM122.981 142.586C122.404 141.295 122.454 139.734 123.129 137.903C123.804 136.072 124.812 134.765 126.153 133.984C127.509 133.207 129.007 133.036 130.646 133.471C132.285 133.906 133.393 134.769 133.97 136.06C134.547 137.35 134.498 138.911 133.822 140.743C133.147 142.574 132.139 143.88 130.798 144.662C129.458 145.443 127.968 145.616 126.328 145.181C124.689 144.745 123.574 143.88 122.981 142.586ZM129.26 137.232C128.394 137.002 127.706 137.577 127.197 138.958C126.687 140.34 126.866 141.145 127.732 141.375C128.613 141.609 129.309 141.036 129.818 139.654C130.327 138.273 130.141 137.466 129.26 137.232ZM137.675 147.748C137.625 147.883 136.811 147.742 135.234 147.323C134.002 146.979 133.406 146.755 133.445 146.65L139.099 131.315C139.182 131.09 139.974 131.177 141.474 131.575C142.772 131.969 143.401 132.219 143.362 132.324L137.675 147.748ZM141.194 147.422C140.617 146.132 140.666 144.571 141.342 142.739C142.017 140.908 143.025 139.601 144.366 138.82C145.722 138.043 147.22 137.872 148.859 138.307C150.498 138.743 151.606 139.605 152.183 140.896C152.76 142.186 152.71 143.747 152.035 145.579C151.36 147.41 150.352 148.716 149.011 149.498C147.67 150.279 146.18 150.452 144.541 150.017C142.902 149.581 141.786 148.716 141.194 147.422ZM147.472 142.068C146.606 141.838 145.919 142.413 145.409 143.795C144.9 145.176 145.078 145.981 145.944 146.211C146.826 146.445 147.521 145.872 148.03 144.491C148.54 143.109 148.354 142.302 147.472 142.068ZM156.687 152.97C156.649 153.075 155.926 152.941 154.518 152.567C153.122 152.163 152.441 151.917 152.474 151.826L155.231 144.351L154.604 144.184C154.357 144.119 154.209 143.923 154.159 143.596C154.131 143.259 154.197 142.873 154.357 142.437C154.955 140.816 155.749 140.137 156.738 140.4C157.434 140.584 157.937 140.949 158.246 141.492C158.56 142.021 158.621 142.548 158.427 143.073C158.978 142.544 159.591 142.171 160.265 141.954C160.961 141.727 161.594 141.689 162.166 141.841C163.063 142.079 163.521 142.448 163.541 142.948C163.543 143.08 163.5 143.266 163.411 143.507C163.328 143.732 163.099 144.124 162.723 144.684C162.362 145.247 162.055 145.643 161.8 145.873C161.546 146.102 161.403 146.212 161.373 146.204C161.342 146.196 161.214 146.104 160.99 145.929C160.787 145.743 160.585 145.624 160.384 145.57C159.796 145.414 159.336 145.787 159.004 146.688L156.687 152.97ZM162.778 150.162C163.759 151.23 164.613 151.861 165.34 152.054C165.804 152.177 166.094 152.081 166.21 151.766C166.293 151.54 165.999 151.141 165.328 150.567C163.677 149.288 163.173 147.778 163.815 146.037C164.225 144.926 164.955 144.188 166.006 143.825C167.057 143.461 168.162 143.433 169.322 143.741C170.497 144.053 171.443 144.436 172.158 144.89C172.889 145.348 173.183 145.772 173.039 146.162C172.917 146.492 172.587 146.882 172.047 147.333C171.523 147.787 171.191 148.02 171.05 148.032C170.518 147.495 169.866 147.124 169.093 146.919C168.675 146.808 168.414 146.895 168.308 147.18C168.242 147.361 168.261 147.539 168.366 147.715C168.492 147.88 168.735 148.118 169.096 148.428C169.463 148.723 169.758 148.983 169.981 149.207C170.219 149.435 170.466 149.731 170.722 150.096C171.254 150.863 171.351 151.705 171.014 152.621C170.571 153.822 169.801 154.689 168.705 155.222C167.614 155.74 166.241 155.779 164.587 155.34C163.489 155.048 162.558 154.603 161.794 154.005C161.03 153.406 160.764 152.792 160.996 152.161C161.151 151.741 161.415 151.325 161.788 150.913C162.176 150.505 162.506 150.254 162.778 150.162ZM176.81 153.146C176.777 153.236 176.203 153.134 175.09 152.838C173.992 152.546 173.457 152.363 173.485 152.288L177.114 141.063C177.158 140.943 177.884 141.07 179.291 141.444C180.714 141.822 181.406 142.063 181.367 142.168L176.81 153.146ZM172.484 153.481C172.523 153.376 173.254 153.512 174.676 153.89C176.115 154.272 176.817 154.508 176.784 154.598L175.588 157.841C175.533 157.991 174.786 157.875 173.348 157.493C171.925 157.115 171.23 156.881 171.264 156.791L172.484 153.481Z" fill="#4C4C4C"/>
<path d="M135.904 168.784C136.89 168.284 137.283 167.081 136.784 166.096C136.284 165.11 135.081 164.717 134.096 165.216L135.904 168.784ZM59.0992 203.895C58.7557 204.945 59.3284 206.075 60.3782 206.418L77.4859 212.015C78.5358 212.358 79.6652 211.786 80.0087 210.736C80.3521 209.686 79.7795 208.557 78.7297 208.213L63.5228 203.238L68.4977 188.031C68.8411 186.982 68.2685 185.852 67.2187 185.509C66.1689 185.165 65.0394 185.738 64.6959 186.788L59.0992 203.895ZM134.096 165.216L60.0956 202.733L61.9044 206.301L135.904 168.784L134.096 165.216Z" fill="#4C4C4C"/>
</svg>
