<svg width="229" height="235" viewBox="0 0 229 235" fill="none" xmlns="http://www.w3.org/2000/svg">
<path d="M73.4863 71.4969C74.5265 72.0281 75.3627 72.6437 75.9948 73.3437C76.6484 74.0368 76.8488 74.6332 76.5961 75.1329C76.3434 75.6326 75.837 76.1555 75.0768 76.7015C74.338 77.2405 73.8404 77.4445 73.5839 77.3136C73.5127 77.2772 73.4452 77.1978 73.3816 77.0755C73.3394 76.9462 73.169 76.7513 72.8703 76.491C72.5931 76.2237 72.3334 76.0282 72.0911 75.9045C71.2647 75.4825 70.4469 75.4332 69.6379 75.7567C68.8431 76.0874 68.1389 76.8596 67.5252 78.0733C66.9187 79.2726 66.7239 80.296 66.9409 81.1434C67.1721 81.998 67.6867 82.6291 68.4847 83.0365C68.8124 83.2039 69.1974 83.3466 69.6397 83.4647C70.1035 83.5757 70.4642 83.5893 70.7219 83.5052C70.7648 83.4912 70.829 83.5061 70.9145 83.5497C71 83.5934 71.0737 83.8376 71.1357 84.2824C71.2191 84.7203 71.2269 85.2543 71.1593 85.8844C71.0989 86.5003 70.9964 86.951 70.852 87.2366C70.5705 87.7935 69.9191 88.0178 68.8981 87.9096C67.877 87.8014 66.7823 87.449 65.6138 86.8523C63.7328 85.8918 62.5225 84.4384 61.9828 82.492C61.443 80.5457 61.7832 78.366 63.0035 75.9529C64.2309 73.5256 65.8146 71.936 67.7547 71.1841C69.7091 70.4394 71.6196 70.5437 73.4863 71.4969ZM75.2144 91.2966C75.1494 91.4251 74.5185 91.1838 73.3215 90.5726C72.1388 89.9686 71.5979 89.5667 71.699 89.3668L79.1178 74.6959C79.1683 74.5959 79.4253 74.6373 79.8887 74.8201C80.3521 75.0028 80.7334 75.1706 81.0327 75.3234C82.2296 75.9346 82.7631 76.3687 82.6332 76.6257L80.4671 80.9092C81.3878 81.0739 82.0548 81.2618 82.4681 81.4728C83.551 82.0258 84.258 82.7551 84.589 83.6607C84.9271 84.552 84.6991 85.783 83.9049 87.3536L80.5475 93.993C80.4825 94.1215 79.8943 93.9019 78.7828 93.3344C77.5505 92.6512 76.9596 92.2597 77.0102 92.1597L80.1943 85.863C80.5481 85.1634 80.497 84.6971 80.041 84.4643C79.7275 84.3042 79.2883 84.2686 78.7234 84.3574L75.2144 91.2966ZM83.8353 94.2975C83.45 92.8611 83.6978 91.272 84.5787 89.5301C85.4595 87.7881 86.5908 86.6501 87.9725 86.116C89.3684 85.5892 90.8216 85.7115 92.3321 86.4828C93.8425 87.2541 94.7904 88.3579 95.1757 89.7943C95.561 91.2306 95.3132 92.8197 94.4323 94.5617C93.5515 96.3036 92.4202 97.4416 91.0385 97.9757C89.6568 98.5098 88.2108 98.3911 86.7003 97.6198C85.1898 96.8485 84.2348 95.7411 83.8353 94.2975ZM90.5234 90.0595C89.7254 89.652 88.9943 90.1051 88.33 91.4187C87.6658 92.7323 87.7326 93.5928 88.5306 94.0003C89.3429 94.4151 90.0811 93.9656 90.7454 92.652C91.4096 91.3384 91.3356 90.4743 90.5234 90.0595ZM94.7939 99.8933C94.4086 98.457 94.6564 96.8679 95.5373 95.1259C96.4182 93.384 97.5494 92.246 98.9311 91.7119C100.327 91.1851 101.78 91.3074 103.291 92.0787C104.801 92.85 105.749 93.9538 106.134 95.3901C106.52 96.8265 106.272 98.4156 105.391 100.158C104.51 101.9 103.379 103.038 101.997 103.572C100.615 104.106 99.1694 103.987 97.6589 103.216C96.1485 102.444 95.1935 101.337 94.7939 99.8933ZM101.482 95.6554C100.684 95.2479 99.9529 95.701 99.2887 97.0146C98.6244 98.3282 98.6913 99.1887 99.4893 99.5962C100.301 100.011 101.04 99.5615 101.704 98.2479C102.368 96.9343 102.294 96.0701 101.482 95.6554ZM106.593 102.658C107.393 103.947 108.128 104.762 108.798 105.104C109.226 105.322 109.515 105.282 109.667 104.982C109.775 104.768 109.545 104.3 108.978 103.579C107.565 101.941 107.277 100.294 108.114 98.6379C108.649 97.5813 109.441 96.9711 110.493 96.8071C111.544 96.6432 112.603 96.8341 113.672 97.3798C114.755 97.9328 115.609 98.5128 116.235 99.1196C116.875 99.7337 117.101 100.226 116.913 100.598C116.754 100.912 116.388 101.246 115.814 101.6C115.255 101.961 114.908 102.134 114.772 102.118C114.333 101.463 113.757 100.953 113.044 100.589C112.66 100.393 112.399 100.43 112.261 100.702C112.175 100.873 112.17 101.059 112.248 101.261C112.347 101.455 112.549 101.747 112.854 102.136C113.166 102.511 113.415 102.835 113.599 103.109C113.797 103.39 113.996 103.743 114.193 104.167C114.603 105.059 114.588 105.941 114.147 106.812C113.569 107.954 112.723 108.689 111.606 109.017C110.497 109.331 109.18 109.099 107.656 108.32C106.644 107.804 105.812 107.163 105.158 106.398C104.505 105.634 104.33 104.952 104.633 104.352C104.836 103.952 105.141 103.578 105.55 103.23C105.974 102.889 106.321 102.699 106.593 102.658ZM122.189 114.745C121.024 114.815 119.737 114.489 118.326 113.769C116.915 113.049 115.967 111.963 115.482 110.511C115.004 109.046 115.194 107.463 116.054 105.764C116.92 104.051 118.08 102.909 119.533 102.34C121.001 101.778 122.447 101.861 123.872 102.588C125.297 103.316 126.21 104.24 126.611 105.361C127.027 106.49 126.971 107.575 126.444 108.617C125.274 110.931 123.364 111.41 120.714 110.057L119.239 109.304C119.022 109.732 118.985 110.09 119.126 110.378C119.289 110.659 119.598 110.916 120.054 111.148C121.052 111.658 122.115 111.913 123.244 111.915C123.265 111.908 123.279 112.04 123.284 112.313C123.316 113.101 123.223 113.71 123.007 114.138C122.797 114.552 122.525 114.754 122.189 114.745ZM122.647 107.191C122.951 106.591 122.81 106.142 122.226 105.844C121.955 105.705 121.677 105.671 121.391 105.741C121.126 105.803 120.914 105.991 120.755 106.305L120.42 106.969L121.574 107.559C122.044 107.799 122.402 107.676 122.647 107.191ZM134.432 115.041C133.725 116.44 133.898 117.409 134.953 117.948C135.637 118.297 136.275 118.452 136.868 118.414C137.082 118.523 137.065 118.981 136.818 119.789C136.592 120.59 136.411 121.126 136.274 121.398C136.144 121.655 136.021 121.808 135.907 121.857C134.913 121.943 133.761 121.651 132.45 120.981C131.139 120.312 130.266 119.255 129.831 117.811C129.417 116.361 129.636 114.793 130.488 113.108C131.347 111.409 132.489 110.267 133.914 109.683C135.353 109.107 136.821 109.2 138.317 109.964C139.828 110.736 140.691 111.635 140.907 112.661C140.956 112.884 140.901 113.152 140.742 113.466C140.59 113.766 140.345 114.108 140.008 114.493C139.289 115.275 138.687 115.633 138.202 115.564C138.137 115.55 138.048 115.513 137.934 115.455C137.834 115.404 137.75 115.253 137.679 115.001C137.405 114.161 137.097 113.653 136.755 113.478C136.427 113.311 136.056 113.337 135.64 113.556C135.225 113.775 134.822 114.27 134.432 115.041ZM138.858 122.394C138.473 120.958 138.721 119.369 139.601 117.627C140.482 115.885 141.614 114.747 142.995 114.213C144.391 113.686 145.844 113.808 147.355 114.579C148.865 115.351 149.813 116.455 150.198 117.891C150.584 119.327 150.336 120.916 149.455 122.658C148.574 124.4 147.443 125.538 146.061 126.072C144.68 126.606 143.234 126.488 141.723 125.716C140.213 124.945 139.258 123.838 138.858 122.394ZM145.546 118.156C144.748 117.749 144.017 118.202 143.353 119.515C142.689 120.829 142.755 121.689 143.553 122.097C144.366 122.512 145.104 122.062 145.768 120.749C146.432 119.435 146.358 118.571 145.546 118.156ZM152.235 130.599C152.17 130.728 151.411 130.421 149.958 129.679C148.825 129.082 148.284 128.734 148.334 128.634L155.71 114.049C155.818 113.835 156.563 114.081 157.946 114.787C159.135 115.448 159.705 115.828 159.654 115.928L152.235 130.599ZM155.64 130.964C155.255 129.527 155.503 127.938 156.384 126.196C157.265 124.454 158.396 123.316 159.778 122.782C161.174 122.256 162.627 122.378 164.137 123.149C165.648 123.92 166.596 125.024 166.981 126.461C167.366 127.897 167.118 129.486 166.237 131.228C165.357 132.97 164.225 134.108 162.844 134.642C161.462 135.176 160.016 135.057 158.505 134.286C156.995 133.515 156.04 132.407 155.64 130.964ZM162.329 126.726C161.531 126.318 160.799 126.771 160.135 128.085C159.471 129.399 159.538 130.259 160.336 130.667C161.148 131.081 161.886 130.632 162.55 129.318C163.215 128.005 163.141 127.141 162.329 126.726ZM169.733 139.723C169.682 139.823 169.009 139.542 167.712 138.879C166.43 138.189 165.81 137.801 165.853 137.715L169.449 130.604L168.872 130.31C168.644 130.193 168.527 129.963 168.522 129.619C168.538 129.268 168.651 128.885 168.86 128.471C169.64 126.929 170.486 126.391 171.398 126.857C172.039 127.184 172.473 127.657 172.698 128.275C172.93 128.879 172.92 129.431 172.668 129.93C173.263 129.498 173.897 129.237 174.569 129.149C175.262 129.054 175.872 129.141 176.4 129.411C177.226 129.833 177.617 130.302 177.571 130.817C177.556 130.953 177.491 131.136 177.375 131.364C177.267 131.578 176.997 131.934 176.566 132.433C176.149 132.938 175.804 133.283 175.531 133.468C175.259 133.652 175.109 133.737 175.08 133.722C175.052 133.708 174.941 133.589 174.75 133.365C174.58 133.134 174.402 132.972 174.217 132.877C173.675 132.601 173.188 132.891 172.754 133.747L169.733 139.723ZM175.914 138.055C176.714 139.344 177.449 140.16 178.119 140.502C178.547 140.72 178.836 140.679 178.988 140.38C179.096 140.165 178.866 139.698 178.299 138.977C176.886 137.339 176.598 135.692 177.436 134.036C177.97 132.979 178.763 132.369 179.814 132.205C180.865 132.041 181.925 132.232 182.993 132.778C184.076 133.331 184.931 133.911 185.556 134.517C186.196 135.132 186.422 135.624 186.234 135.995C186.075 136.31 185.709 136.644 185.136 136.998C184.576 137.359 184.229 137.532 184.093 137.516C183.654 136.861 183.078 136.351 182.365 135.987C181.981 135.791 181.72 135.828 181.583 136.099C181.496 136.271 181.491 136.457 181.569 136.658C181.668 136.853 181.87 137.144 182.175 137.534C182.487 137.909 182.736 138.233 182.92 138.507C183.119 138.788 183.317 139.141 183.515 139.565C183.924 140.457 183.909 141.338 183.468 142.209C182.891 143.352 182.044 144.087 180.928 144.415C179.818 144.729 178.502 144.497 176.977 143.718C175.965 143.202 175.133 142.561 174.479 141.796C173.826 141.032 173.651 140.349 173.955 139.75C174.157 139.35 174.462 138.976 174.871 138.628C175.295 138.287 175.642 138.096 175.914 138.055ZM188.94 143.898C188.896 143.984 188.362 143.765 187.336 143.241C186.324 142.724 185.836 142.43 185.872 142.359L190.784 131.582C190.842 131.468 191.519 131.742 192.816 132.404C194.127 133.073 194.757 133.458 194.706 133.558L188.94 143.898ZM184.763 143.382C184.813 143.283 185.494 143.567 186.805 144.237C188.13 144.913 188.771 145.295 188.728 145.38L187.168 148.464C187.096 148.607 186.398 148.34 185.072 147.663C183.761 146.994 183.128 146.617 183.171 146.531L184.763 143.382Z" fill="#4C4C4C"/>
<path d="M111.883 125.795C112.874 125.307 113.282 124.108 112.795 123.117C112.307 122.126 111.108 121.718 110.117 122.205L111.883 125.795ZM46.1067 154.355C45.7507 155.401 46.3098 156.537 47.3555 156.893L64.3952 162.694C65.4408 163.05 66.577 162.491 66.933 161.445C67.289 160.4 66.7299 159.263 65.6842 158.907L50.5378 153.751L55.694 138.605C56.05 137.559 55.4909 136.423 54.4453 136.067C53.3996 135.711 52.2634 136.27 51.9074 137.316L46.1067 154.355ZM110.117 122.205L47.117 153.205L48.883 156.795L111.883 125.795L110.117 122.205Z" fill="#4C4C4C"/>
</svg>
