<svg width="227" height="142" viewBox="0 0 227 142" fill="none" xmlns="http://www.w3.org/2000/svg">
<path d="M46.8471 74.8745C45.0722 75.3693 44.0609 75.3414 43.8133 74.7905L42.079 70.9903L37.2133 72.347L37.0222 76.5181C37.0159 77.2061 36.0947 77.8061 34.2586 78.3181C33.2793 78.5912 32.5457 78.7404 32.0578 78.7657C31.5661 78.77 31.3146 78.7405 31.3034 78.6772L32.918 55.7452C32.8881 55.5765 34.2706 55.1024 37.0655 54.3231C39.8605 53.5438 41.2729 53.2385 41.3029 53.4073L50.4045 73.3844C50.4307 73.5321 49.9821 73.7789 49.0586 74.125C48.1351 74.471 47.3979 74.7209 46.8471 74.8745ZM37.2652 68.1151L40.4784 67.2192L37.9388 61.0533L37.7552 61.1045L37.2652 68.1151ZM56.1975 49.1546C56.1413 48.8382 56.9191 48.4553 58.5308 48.0059C59.0816 47.8523 59.7215 47.7181 60.4505 47.6034C61.1962 47.4619 61.5803 47.4545 61.6027 47.581L64.5622 64.2564L65.6333 63.9577C66.1433 63.8155 66.5642 64.1963 66.8959 65.1001C66.9853 65.3629 67.0731 65.7369 67.1592 66.2221C67.2416 66.6862 67.1999 67.2956 67.0341 68.0502C66.7908 69.0922 66.2203 69.7383 65.3226 69.9886C64.6494 70.1763 64.0232 70.207 63.4441 70.0807C62.8854 69.9486 62.4881 69.7606 62.2521 69.5164L61.9036 69.1819C60.98 70.6128 59.6715 71.5643 57.9782 72.0364C56.2849 72.5086 54.7073 72.1847 53.2453 71.0648C51.7833 69.9448 50.8221 68.0876 50.3616 65.4929C49.8973 62.8772 50.1722 60.6863 51.1863 58.9203C52.1966 57.1331 53.6504 55.9751 55.5477 55.446C56.0985 55.2924 56.6708 55.1993 57.2644 55.1666L56.1975 49.1546ZM57.1194 60.321C55.977 60.6396 55.5948 61.8642 55.9729 63.9947C56.1639 65.0705 56.4656 65.8055 56.8781 66.1997C57.2869 66.5728 57.6851 66.7053 58.0727 66.5972C58.4807 66.4834 58.8365 66.196 59.1401 65.735L58.1854 60.3559C57.8012 60.2416 57.4458 60.23 57.1194 60.321ZM73.5006 44.33C73.4444 44.0135 74.2222 43.6306 75.8339 43.1812C76.3847 43.0277 77.0246 42.8935 77.7537 42.7788C78.4993 42.6373 78.8834 42.6298 78.9059 42.7564L81.8654 59.4317L82.9364 59.1331C83.4465 58.9909 83.8673 59.3717 84.199 60.2754C84.2885 60.5383 84.3763 60.9123 84.4624 61.3975C84.5447 61.8615 84.503 62.4709 84.3372 63.2256C84.0939 64.2675 83.5234 64.9136 82.6258 65.1639C81.9525 65.3517 81.3264 65.3823 80.7473 65.256C80.1886 65.124 79.7912 64.9359 79.5552 64.6918L79.2068 64.3572C78.2831 65.7881 76.9746 66.7396 75.2814 67.2118C73.5881 67.6839 72.0104 67.36 70.5484 66.2401C69.0864 65.1202 68.1252 63.2629 67.6647 60.6683C67.2005 58.0525 67.4754 55.8616 68.4894 54.0956C69.4997 52.3085 70.9535 51.1504 72.8508 50.6214C73.4016 50.4678 73.9739 50.3747 74.5676 50.3419L73.5006 44.33ZM74.4225 55.4964C73.2801 55.815 72.8979 57.0395 73.276 59.1701C73.467 60.2459 73.7687 60.9809 74.1812 61.3751C74.59 61.7481 74.9882 61.8806 75.3758 61.7725C75.7839 61.6588 76.1397 61.3714 76.4432 60.9104L75.4886 55.5312C75.1043 55.417 74.749 55.4054 74.4225 55.4964ZM98.2929 60.2641C98.3229 60.4329 97.3994 60.7789 95.5225 61.3023C93.666 61.8199 92.7246 62.0049 92.6984 61.8572L89.9411 46.321C89.9149 46.1733 90.83 45.8407 92.6865 45.323C94.5635 44.7997 95.5131 44.6013 95.5356 44.7279L98.2929 60.2641ZM95.2043 42.861C95.2305 43.0087 94.3051 43.3442 92.4282 43.8675C90.5717 44.3851 89.6322 44.5807 89.6098 44.4541L88.8011 39.8977C88.7637 39.6867 89.6732 39.3224 91.5297 38.8048C93.4066 38.2814 94.3563 38.083 94.3788 38.2096L95.2043 42.861ZM114.929 55.6588C114.955 55.8064 114.091 56.1249 112.336 56.6141C110.602 57.0976 109.718 57.2444 109.685 57.0546L108.05 47.8467C107.863 46.792 107.433 46.3585 106.76 46.5462C106.413 46.6429 105.995 47.003 105.506 47.6263L107.303 57.7518C107.341 57.9627 106.482 58.3128 104.728 58.802C102.994 59.2855 102.106 59.4113 102.065 59.1792L100.228 48.8323L99.4633 49.0456C98.7901 49.2333 98.3243 48.5994 98.066 47.1439C97.9499 46.4899 97.9544 45.7913 98.0794 45.048C98.2411 44.0288 98.6892 43.4169 99.4236 43.2121C100.158 43.0073 100.897 43.0114 101.642 43.2245C102.407 43.4319 102.892 43.695 103.099 44.0138C104.158 42.5009 105.452 41.5311 106.982 41.1045C108.533 40.6722 109.865 40.8209 110.98 41.5507C111.905 40.2521 113.143 39.3866 114.694 38.9543C118.06 38.0157 120.119 39.6664 120.872 43.9064L122.579 53.5256C122.605 53.6733 121.741 53.9917 119.987 54.4809C118.253 54.9644 117.369 55.1113 117.335 54.9214L115.701 45.7136C115.514 44.6588 115.083 44.2253 114.41 44.413C114.043 44.5154 113.615 44.8783 113.126 45.5017L114.929 55.6588ZM125.1 40.9342C124.342 40.0387 123.905 39.264 123.789 38.6101C123.669 37.9351 123.765 37.4543 124.079 37.1677C125.148 36.3161 126.692 35.6087 128.712 35.0456C130.752 34.4767 132.278 34.5714 133.291 35.3296C134.3 36.0667 134.974 37.3951 135.315 39.3147L136.202 44.3142L137.243 44.0241C137.589 43.9274 137.892 44.0644 138.151 44.4351C138.43 44.8001 138.634 45.3517 138.765 46.0901C138.897 46.8284 138.842 47.6073 138.602 48.4269C138.383 49.2409 137.967 49.7332 137.355 49.9038C136.253 50.211 135.311 50.1526 134.53 49.7285C134.179 49.5607 133.89 49.3203 133.663 49.0072C132.942 50.4923 131.591 51.5108 129.613 52.0626C128.123 52.4778 126.771 52.2792 125.557 51.4667C124.342 50.6542 123.602 49.4991 123.336 48.0014C122.725 44.5629 124.409 42.2891 128.388 41.1798L130.071 40.7105L130.015 40.3941C129.917 39.8457 129.764 39.5232 129.554 39.4267C129.361 39.3035 128.948 39.33 128.315 39.5064C127.54 39.7225 126.469 40.1985 125.1 40.9342ZM128.582 46.0737C128.664 46.5378 128.85 46.8623 129.14 47.0471C129.426 47.2109 129.753 47.2416 130.12 47.1392C130.507 47.0311 130.826 46.7762 131.076 46.3745L130.644 43.938L129.787 44.177C128.807 44.45 128.406 45.0822 128.582 46.0737ZM146.651 46.9798C144.672 47.5316 143.026 47.3043 141.712 46.2979C140.395 45.2704 139.508 43.4699 139.051 40.8963C138.591 38.3017 138.935 36.0803 140.085 34.2323C141.251 32.3575 143.007 31.093 145.353 30.4388C147.719 29.7789 149.763 29.7736 151.484 30.4228L154.281 46.1806C154.558 47.7416 154.157 49.1041 153.079 50.2681C152.005 51.4532 150.509 52.3131 148.591 52.8478C146.674 53.3825 144.915 53.6072 143.315 53.5219C143.022 53.0725 142.839 52.6474 142.768 52.2466C142.528 50.8965 142.567 49.8453 142.883 49.093C144.358 49.3237 145.871 49.2228 147.422 48.7905C148.544 48.4776 149.032 47.9098 148.886 47.0872L148.717 46.1379C147.87 46.5513 147.181 46.8319 146.651 46.9798ZM146.115 35.6391C144.748 36.0203 144.254 37.2761 144.632 39.4067C144.868 40.7356 145.287 41.5266 145.888 41.7795C146.284 41.957 146.655 41.9974 147.002 41.9007C147.349 41.804 147.649 41.687 147.903 41.5498L146.836 35.5378C146.58 35.5428 146.34 35.5766 146.115 35.6391ZM168.215 40.0704C167.068 41.2093 165.485 42.0603 163.465 42.6235C161.445 43.1866 159.616 42.955 157.978 41.9284C156.336 40.8808 155.293 39.1019 154.847 36.5916C154.398 34.0602 154.7 31.8397 155.752 29.93C156.826 28.0147 158.382 26.7726 160.422 26.2037C162.463 25.6349 164.129 25.7348 165.421 26.5035C166.734 27.2664 167.528 28.4179 167.801 29.9578C168.407 33.3751 166.813 35.6128 163.019 36.6709L160.907 37.2596C161.02 37.8925 161.261 38.2899 161.633 38.4521C162.021 38.5874 162.541 38.5641 163.194 38.382C164.622 37.9838 165.919 37.268 167.084 36.2346C167.101 36.2079 167.219 36.3299 167.438 36.6008C168.089 37.3714 168.47 38.0731 168.583 38.7059C168.691 39.3177 168.569 39.7725 168.215 40.0704ZM162.767 31.9925C162.609 31.1065 162.112 30.7801 161.276 31.0133C160.888 31.1214 160.574 31.3419 160.334 31.6746C160.11 31.9806 160.039 32.3657 160.121 32.8297L160.295 33.8106L161.948 33.3499C162.621 33.1622 162.894 32.7097 162.767 31.9925ZM175.551 31.9477C175.574 32.0743 174.851 32.3423 173.382 32.7519C171.933 33.1558 171.2 33.305 171.181 33.1995L167.8 17.7707C167.77 17.6019 168.684 17.2587 170.54 16.741C172.417 16.2177 173.369 16.0299 173.395 16.1775L175.551 31.9477ZM170.839 35.2541C170.813 35.1065 171.738 34.771 173.615 34.2476C175.512 33.7186 176.472 33.5174 176.495 33.6439L177.303 38.2004C177.341 38.4113 176.411 38.7813 174.514 39.3104C172.637 39.8337 171.687 40.0321 171.665 39.9055L170.839 35.2541Z" fill="#4C4C4C"/>
<path d="M123.868 77.1984C122.873 76.7188 121.678 77.1366 121.198 78.1316C120.719 79.1266 121.137 80.3221 122.132 80.8016L123.868 77.1984ZM225.322 129.888C226.365 129.524 226.915 128.383 226.55 127.34L220.611 110.348C220.246 109.305 219.106 108.756 218.063 109.12C217.02 109.485 216.47 110.625 216.835 111.668L222.114 126.772L207.01 132.051C205.968 132.416 205.418 133.557 205.782 134.599C206.147 135.642 207.287 136.192 208.33 135.827L225.322 129.888ZM122.132 80.8016L223.794 129.802L225.531 126.198L123.868 77.1984L122.132 80.8016Z" fill="#4C4C4C"/>
</svg>
