<svg width="111" height="149" viewBox="0 0 111 149" fill="none" xmlns="http://www.w3.org/2000/svg">
<path d="M63.0845 8.00388C63.0866 3.86174 59.7305 0.502141 55.5883 0.5C51.4462 0.49786 48.0866 3.85399 48.0845 7.99612L63.0845 8.00388ZM50.211 145.88C53.1384 148.81 57.8872 148.813 60.8176 145.886L108.572 98.1805C111.502 95.2531 111.504 90.5043 108.577 87.5739C105.65 84.6434 100.901 84.641 97.9704 87.5684L55.5224 129.973L13.1176 87.5246C10.1902 84.5941 5.44142 84.5917 2.51099 87.5191C-0.419431 90.4465 -0.421849 95.1952 2.50559 98.1257L50.211 145.88ZM48.0845 7.99612L48.017 140.576L63.017 140.583L63.0845 8.00388L48.0845 7.99612Z" fill="#4C4C4C"/>
</svg>
