<svg width="235" height="53" viewBox="0 0 235 53" fill="none" xmlns="http://www.w3.org/2000/svg">
<rect x="1" y="1" width="233" height="50.2222" rx="25.1111" fill="#FBFF39" stroke="#4C4C4C" stroke-width="2"/>
<path d="M33.3551 34.712V17.912C33.3551 17.4453 33.4671 17.0813 33.6911 16.82C33.9337 16.54 34.2417 16.4 34.6151 16.4H39.2911C42.2591 16.4 44.5084 17.1467 46.0391 18.64C47.5884 20.1333 48.3631 22.4853 48.3631 25.696C48.3631 32.5653 45.4324 36 39.5711 36H34.7831C33.8311 36 33.3551 35.5707 33.3551 34.712ZM38.7311 21.72V30.092C38.7311 30.484 38.7591 30.736 38.8151 30.848C38.8711 30.9413 39.0391 30.988 39.3191 30.988C40.3457 30.988 41.1204 30.6053 41.6431 29.84C42.1844 29.0747 42.4551 27.8053 42.4551 26.032C42.4551 24.24 42.1751 23.0733 41.6151 22.532C41.0737 21.9907 40.2057 21.72 39.0111 21.72H38.7311ZM59.709 24.184C60.0637 24.184 60.241 24.8373 60.241 26.144C60.241 26.536 60.1943 27.0027 60.101 27.544C60.0263 28.0667 59.877 28.328 59.653 28.328H56.097V31.128H61.249C61.5663 31.128 61.781 31.5387 61.893 32.36C61.949 32.7147 61.977 33.0973 61.977 33.508C61.977 33.9 61.921 34.4133 61.809 35.048C61.697 35.6827 61.5103 36 61.249 36H51.673C50.9637 36 50.609 35.7107 50.609 35.132V17.128C50.609 16.6427 50.8237 16.4 51.253 16.4H61.277C61.669 16.4 61.865 17.2307 61.865 18.892C61.865 20.5347 61.669 21.356 61.277 21.356H56.097V24.184H59.709ZM72.8456 35.552C72.8456 35.9253 71.9216 36.112 70.0736 36.112C68.2256 36.112 67.3016 35.9253 67.3016 35.552V21.496H63.9416C63.6242 21.496 63.4002 21.0667 63.2696 20.208C63.2136 19.7973 63.1856 19.3773 63.1856 18.948C63.1856 18.5187 63.2136 18.0987 63.2696 17.688C63.4002 16.8293 63.6242 16.4 63.9416 16.4H76.1216C76.4389 16.4 76.6629 16.8293 76.7936 17.688C76.8496 18.0987 76.8776 18.5187 76.8776 18.948C76.8776 19.3773 76.8496 19.7973 76.7936 20.208C76.6629 21.0667 76.4389 21.496 76.1216 21.496H72.8456V35.552ZM87.5723 24.184C87.9269 24.184 88.1043 24.8373 88.1043 26.144C88.1043 26.536 88.0576 27.0027 87.9643 27.544C87.8896 28.0667 87.7403 28.328 87.5163 28.328H83.9603V31.128H89.1123C89.4296 31.128 89.6443 31.5387 89.7563 32.36C89.8123 32.7147 89.8403 33.0973 89.8403 33.508C89.8403 33.9 89.7843 34.4133 89.6723 35.048C89.5603 35.6827 89.3736 36 89.1123 36H79.5363C78.8269 36 78.4723 35.7107 78.4723 35.132V17.128C78.4723 16.6427 78.6869 16.4 79.1163 16.4H89.1403C89.5323 16.4 89.7283 17.2307 89.7283 18.892C89.7283 20.5347 89.5323 21.356 89.1403 21.356H83.9603V24.184H87.5723ZM100.289 16.148C101.652 16.148 102.846 16.344 103.873 16.736C104.918 17.1093 105.441 17.6227 105.441 18.276C105.441 18.9293 105.189 19.7413 104.685 20.712C104.2 21.664 103.789 22.14 103.453 22.14C103.36 22.14 103.248 22.0933 103.117 22C103.005 21.888 102.725 21.776 102.277 21.664C101.848 21.5333 101.474 21.468 101.157 21.468C100.074 21.468 99.1969 21.8507 98.5249 22.616C97.8715 23.3813 97.5449 24.5573 97.5449 26.144C97.5449 27.712 97.8809 28.8787 98.5529 29.644C99.2435 30.4093 100.112 30.792 101.157 30.792C101.586 30.792 102.062 30.736 102.585 30.624C103.126 30.4933 103.509 30.316 103.733 30.092C103.77 30.0547 103.845 30.036 103.957 30.036C104.069 30.036 104.274 30.2507 104.573 30.68C104.89 31.0907 105.18 31.6413 105.441 32.332C105.702 33.004 105.833 33.5267 105.833 33.9C105.833 34.628 105.273 35.2067 104.153 35.636C103.033 36.0653 101.708 36.28 100.177 36.28C97.7129 36.28 95.6875 35.412 94.1009 33.676C92.5142 31.94 91.7209 29.4947 91.7209 26.34C91.7209 23.1667 92.5329 20.6747 94.1569 18.864C95.7995 17.0533 97.8435 16.148 100.289 16.148ZM116.404 35.552C116.404 35.9253 115.48 36.112 113.632 36.112C111.784 36.112 110.86 35.9253 110.86 35.552V21.496H107.5C107.183 21.496 106.959 21.0667 106.828 20.208C106.772 19.7973 106.744 19.3773 106.744 18.948C106.744 18.5187 106.772 18.0987 106.828 17.688C106.959 16.8293 107.183 16.4 107.5 16.4H119.68C119.998 16.4 120.222 16.8293 120.352 17.688C120.408 18.0987 120.436 18.5187 120.436 18.948C120.436 19.3773 120.408 19.7973 120.352 20.208C120.222 21.0667 119.998 21.496 119.68 21.496H116.404V35.552ZM136.408 24.184C136.763 24.184 136.94 24.8373 136.94 26.144C136.94 26.536 136.894 27.0027 136.8 27.544C136.726 28.0667 136.576 28.328 136.352 28.328H132.796V31.128H137.948C138.266 31.128 138.48 31.5387 138.592 32.36C138.648 32.7147 138.676 33.0973 138.676 33.508C138.676 33.9 138.62 34.4133 138.508 35.048C138.396 35.6827 138.21 36 137.948 36H128.372C127.663 36 127.308 35.7107 127.308 35.132V17.128C127.308 16.6427 127.523 16.4 127.952 16.4H137.976C138.368 16.4 138.564 17.2307 138.564 18.892C138.564 20.5347 138.368 21.356 137.976 21.356H132.796V24.184H136.408ZM141.117 34.712V17.912C141.117 17.4453 141.229 17.0813 141.453 16.82C141.695 16.54 142.003 16.4 142.377 16.4H147.053C150.021 16.4 152.27 17.1467 153.801 18.64C155.35 20.1333 156.125 22.4853 156.125 25.696C156.125 32.5653 153.194 36 147.333 36H142.545C141.593 36 141.117 35.5707 141.117 34.712ZM146.493 21.72V30.092C146.493 30.484 146.521 30.736 146.577 30.848C146.633 30.9413 146.801 30.988 147.081 30.988C148.107 30.988 148.882 30.6053 149.405 29.84C149.946 29.0747 150.217 27.8053 150.217 26.032C150.217 24.24 149.937 23.0733 149.377 22.532C148.835 21.9907 147.967 21.72 146.773 21.72H146.493ZM168.731 30.148L168.787 26.34C168.787 26.0787 169.057 25.9107 169.599 25.836C170.14 25.7427 170.588 25.696 170.943 25.696L172.035 25.78C172.744 25.892 173.099 26.088 173.099 26.368L172.987 35.132C172.613 35.3933 171.857 35.6547 170.719 35.916C169.599 36.1587 168.311 36.28 166.855 36.28C164.148 36.28 161.964 35.4027 160.303 33.648C158.641 31.8933 157.811 29.3173 157.811 25.92C157.811 23.0267 158.623 20.6747 160.247 18.864C161.871 17.0533 164.12 16.148 166.995 16.148C168.301 16.148 169.477 16.2787 170.523 16.54C171.587 16.7827 172.315 17.1187 172.707 17.548C172.725 17.6973 172.735 17.9773 172.735 18.388C172.735 18.7987 172.595 19.3867 172.315 20.152C172.035 20.8987 171.717 21.4587 171.363 21.832C171.008 22.2053 170.747 22.392 170.579 22.392C170.429 22.392 170.261 22.3267 170.075 22.196C169.907 22.0467 169.561 21.8973 169.039 21.748C168.516 21.58 168.012 21.496 167.527 21.496C166.369 21.496 165.427 21.8693 164.699 22.616C163.989 23.3627 163.635 24.52 163.635 26.088C163.635 27.656 163.999 28.8507 164.727 29.672C165.473 30.4747 166.323 30.876 167.275 30.876C168.245 30.876 168.731 30.6333 168.731 30.148ZM184.861 24.184C185.216 24.184 185.393 24.8373 185.393 26.144C185.393 26.536 185.347 27.0027 185.253 27.544C185.179 28.0667 185.029 28.328 184.805 28.328H181.249V31.128H186.401C186.719 31.128 186.933 31.5387 187.045 32.36C187.101 32.7147 187.129 33.0973 187.129 33.508C187.129 33.9 187.073 34.4133 186.961 35.048C186.849 35.6827 186.663 36 186.401 36H176.825C176.116 36 175.761 35.7107 175.761 35.132V17.128C175.761 16.6427 175.976 16.4 176.405 16.4H186.429C186.821 16.4 187.017 17.2307 187.017 18.892C187.017 20.5347 186.821 21.356 186.429 21.356H181.249V24.184H184.861ZM190.298 29.168C190.653 29.448 191.259 29.8307 192.118 30.316C192.995 30.8013 193.826 31.044 194.61 31.044C195.413 31.044 195.814 30.736 195.814 30.12C195.814 29.84 195.702 29.5973 195.478 29.392C195.254 29.168 194.843 28.916 194.246 28.636C193.649 28.356 193.201 28.1413 192.902 27.992C192.603 27.824 192.202 27.5627 191.698 27.208C191.213 26.8347 190.839 26.452 190.578 26.06C189.831 24.996 189.458 23.6427 189.458 22C189.458 20.3573 190.065 18.976 191.278 17.856C192.51 16.7173 194.115 16.148 196.094 16.148C197.438 16.148 198.679 16.2973 199.818 16.596C200.957 16.876 201.545 17.2493 201.582 17.716C201.582 17.772 201.582 17.828 201.582 17.884C201.582 18.5373 201.377 19.368 200.966 20.376C200.555 21.3653 200.266 21.916 200.098 22.028C198.903 21.412 197.83 21.104 196.878 21.104C195.945 21.104 195.478 21.44 195.478 22.112C195.478 22.5227 195.823 22.8867 196.514 23.204C196.663 23.2787 196.878 23.3813 197.158 23.512C197.438 23.6427 197.755 23.8013 198.11 23.988C198.483 24.156 198.875 24.38 199.286 24.66C199.715 24.9213 200.173 25.276 200.658 25.724C201.647 26.6573 202.142 27.8893 202.142 29.42C202.142 31.4173 201.591 33.0507 200.49 34.32C199.389 35.5893 197.69 36.2427 195.394 36.28C194.274 36.28 193.257 36.1867 192.342 36C191.446 35.8133 190.662 35.4493 189.99 34.908C189.318 34.3667 188.982 33.7133 188.982 32.948C188.982 32.1827 189.122 31.4267 189.402 30.68C189.682 29.9147 189.981 29.4107 190.298 29.168Z" fill="black"/>
</svg>
