<svg width="235" height="53" viewBox="0 0 235 53" fill="none" xmlns="http://www.w3.org/2000/svg">
<rect x="1" y="1" width="233" height="50.2222" rx="25.1111" fill="#3D39FF" stroke="#4C4C4C" stroke-width="2"/>
<path d="M44.4703 34.712V17.912C44.4703 17.4453 44.5823 17.0813 44.8063 16.82C45.049 16.54 45.357 16.4 45.7303 16.4H50.4063C53.3743 16.4 55.6236 17.1467 57.1543 18.64C58.7036 20.1333 59.4783 22.4853 59.4783 25.696C59.4783 32.5653 56.5476 36 50.6863 36H45.8983C44.9463 36 44.4703 35.5707 44.4703 34.712ZM49.8463 21.72V30.092C49.8463 30.484 49.8743 30.736 49.9303 30.848C49.9863 30.9413 50.1543 30.988 50.4343 30.988C51.461 30.988 52.2356 30.6053 52.7583 29.84C53.2996 29.0747 53.5703 27.8053 53.5703 26.032C53.5703 24.24 53.2903 23.0733 52.7303 22.532C52.189 21.9907 51.321 21.72 50.1263 21.72H49.8463ZM70.0402 36.28C67.4269 36.28 65.2896 35.4213 63.6282 33.704C61.9856 31.9867 61.1642 29.4853 61.1642 26.2C61.1642 22.896 61.9949 20.3947 63.6562 18.696C65.3362 16.9973 67.4922 16.148 70.1242 16.148C72.7749 16.148 74.9122 16.988 76.5362 18.668C78.1602 20.3293 78.9722 22.8587 78.9722 26.256C78.9722 29.6347 78.1416 32.1547 76.4802 33.816C74.8189 35.4587 72.6722 36.28 70.0402 36.28ZM70.0682 21.524C69.1722 21.524 68.4162 21.9347 67.8002 22.756C67.2029 23.5773 66.9042 24.7347 66.9042 26.228C66.9042 27.7027 67.1936 28.8413 67.7722 29.644C68.3509 30.428 69.1069 30.82 70.0402 30.82C70.9922 30.82 71.7576 30.4187 72.3362 29.616C72.9336 28.8133 73.2322 27.6653 73.2322 26.172C73.2322 24.6787 72.9242 23.5307 72.3082 22.728C71.7109 21.9253 70.9642 21.524 70.0682 21.524ZM80.4083 16.68C80.3523 16.4747 81.295 16.372 83.2363 16.372C85.383 16.372 86.4843 16.5493 86.5403 16.904L87.9123 28.692L90.8803 16.764C90.9736 16.484 91.7016 16.344 93.0643 16.344C94.427 16.344 95.155 16.4747 95.2483 16.736L98.1603 28.748L99.7843 16.848C99.8216 16.6427 100.251 16.5027 101.072 16.428C101.894 16.3533 102.556 16.316 103.06 16.316C105.02 16.316 105.972 16.4467 105.916 16.708L102.528 35.272C102.454 35.552 101.922 35.7573 100.932 35.888C99.943 36.0187 99.1403 36.084 98.5243 36.084C96.2096 36.084 94.9963 35.8227 94.8843 35.3L92.9803 27.6L90.9083 35.272C90.8336 35.608 90.1803 35.8507 88.9483 36C88.3136 36.056 87.679 36.084 87.0443 36.084L85.2523 36C84.0203 35.8693 83.367 35.636 83.2923 35.3L80.4083 16.68ZM123.252 35.384C123.252 35.776 122.374 35.972 120.62 35.972C118.865 35.972 117.913 35.832 117.764 35.552L113.088 26.816V35.524C113.088 35.86 112.22 36.028 110.484 36.028C108.766 36.028 107.908 35.86 107.908 35.524V16.792C107.908 16.512 108.645 16.372 110.12 16.372C110.698 16.372 111.37 16.428 112.136 16.54C112.92 16.6333 113.396 16.82 113.564 17.1L118.044 25.724V16.932C118.044 16.5773 118.912 16.4 120.648 16.4C122.384 16.4 123.252 16.5773 123.252 16.932V35.384ZM125.784 34.348V16.932C125.784 16.54 126.727 16.344 128.612 16.344C130.516 16.344 131.468 16.54 131.468 16.932V30.652H135.78C136.116 30.652 136.349 31.0907 136.48 31.968C136.536 32.3973 136.564 32.836 136.564 33.284C136.564 33.732 136.536 34.1893 136.48 34.656C136.331 35.552 136.088 36 135.752 36H127.128C126.717 36 126.391 35.832 126.148 35.496C125.905 35.16 125.784 34.7773 125.784 34.348ZM146.548 36.28C143.935 36.28 141.797 35.4213 140.136 33.704C138.493 31.9867 137.672 29.4853 137.672 26.2C137.672 22.896 138.503 20.3947 140.164 18.696C141.844 16.9973 144 16.148 146.632 16.148C149.283 16.148 151.42 16.988 153.044 18.668C154.668 20.3293 155.48 22.8587 155.48 26.256C155.48 29.6347 154.649 32.1547 152.988 33.816C151.327 35.4587 149.18 36.28 146.548 36.28ZM146.576 21.524C145.68 21.524 144.924 21.9347 144.308 22.756C143.711 23.5773 143.412 24.7347 143.412 26.228C143.412 27.7027 143.701 28.8413 144.28 29.644C144.859 30.428 145.615 30.82 146.548 30.82C147.5 30.82 148.265 30.4187 148.844 29.616C149.441 28.8133 149.74 27.6653 149.74 26.172C149.74 24.6787 149.432 23.5307 148.816 22.728C148.219 21.9253 147.472 21.524 146.576 21.524ZM170.888 36.056C169.264 36.056 168.387 35.7947 168.256 35.272L167.332 31.66H162.88L162.068 35.132C161.956 35.7107 161.06 36 159.38 36C158.484 36 157.821 35.9533 157.392 35.86C156.963 35.748 156.748 35.664 156.748 35.608L161.704 16.652C161.704 16.5027 162.983 16.428 165.54 16.428C168.097 16.428 169.376 16.5027 169.376 16.652L174.22 35.636C174.22 35.7667 173.791 35.8693 172.932 35.944C172.073 36.0187 171.392 36.056 170.888 36.056ZM163.58 28.104H166.52L165.26 22.308H165.092L163.58 28.104ZM176.076 34.712V17.912C176.076 17.4453 176.188 17.0813 176.412 16.82C176.654 16.54 176.962 16.4 177.336 16.4H182.012C184.98 16.4 187.229 17.1467 188.76 18.64C190.309 20.1333 191.084 22.4853 191.084 25.696C191.084 32.5653 188.153 36 182.292 36H177.504C176.552 36 176.076 35.5707 176.076 34.712ZM181.452 21.72V30.092C181.452 30.484 181.48 30.736 181.536 30.848C181.592 30.9413 181.76 30.988 182.04 30.988C183.066 30.988 183.841 30.6053 184.364 29.84C184.905 29.0747 185.176 27.8053 185.176 26.032C185.176 24.24 184.896 23.0733 184.336 22.532C183.794 21.9907 182.926 21.72 181.732 21.72H181.452Z" fill="black"/>
</svg>
