<svg width="44" height="44" viewBox="0 0 44 44" fill="none" xmlns="http://www.w3.org/2000/svg">
<circle cx="22" cy="22" r="21" fill="#D9D9D9" stroke="#818181" stroke-width="2"/>
<mask id="mask0_110_2" style="mask-type:alpha" maskUnits="userSpaceOnUse" x="8" y="7" width="30" height="30">
<rect x="8" y="7" width="30" height="30" fill="#D9D9D9"/>
</mask>
<g mask="url(#mask0_110_2)">
<path d="M11.75 33.25V27.3125L22.9375 16.125L21.125 14.375L22.9375 12.625L25.3125 15L29.1875 11.125C29.4167 10.8958 29.7083 10.7812 30.0625 10.7812C30.4167 10.7812 30.7083 10.8958 30.9375 11.125L33.875 14.0625C34.1042 14.2917 34.2188 14.5833 34.2188 14.9375C34.2188 15.2917 34.1042 15.5833 33.875 15.8125L30.0312 19.6562L32.4062 22.0937L30.625 23.875L28.875 22.0625L17.6875 33.25H11.75ZM14.25 30.75H16.6875L27.0625 20.3125L24.6875 17.9375L14.25 28.3125V30.75ZM28.2187 17.9375L31.2188 14.9375L30.0625 13.7813L27.0625 16.7812L28.2187 17.9375Z" fill="#4C4C4C"/>
</g>
</svg>
