<svg width="44" height="44" viewBox="0 0 44 44" fill="none" xmlns="http://www.w3.org/2000/svg">
<circle cx="22" cy="22" r="21" fill="#a1f150" stroke="#818181" stroke-width="2"/>
<mask id="mask0_109_2" style="mask-type:alpha" maskUnits="userSpaceOnUse" x="7" y="7" width="30" height="30">
<rect x="7" y="7" width="30" height="30" fill="#a1f150"/>
</mask>
<g mask="url(#mask0_109_2)">
<path d="M12.5 33.75C11.8125 33.75 11.2237 33.5054 10.7337 33.0163C10.2446 32.5263 10 31.9375 10 31.25V13.75C10 13.0625 10.2446 12.4737 10.7337 11.9837C11.2237 11.4946 11.8125 11.25 12.5 11.25H18.75V13.75H12.5V31.25H30V24.5625L32.5 27.0625V31.25C32.5 31.9375 32.2554 32.5263 31.7663 33.0163C31.2763 33.5054 30.6875 33.75 30 33.75H12.5ZM13.75 28.75L17.5 23.75L20.3125 27.5L24.0625 22.5L28.75 28.75H13.75ZM33.1875 24.25L29.3125 20.375C28.875 20.6667 28.4063 20.8854 27.9063 21.0312C27.4063 21.1771 26.875 21.25 26.3125 21.25C24.7708 21.25 23.4583 20.7033 22.375 19.61C21.2917 18.5158 20.75 17.1875 20.75 15.625C20.75 14.0625 21.2971 12.7342 22.3913 11.64C23.4846 10.5467 24.8125 10 26.375 10C27.9375 10 29.2658 10.5467 30.36 11.64C31.4533 12.7342 32 14.0625 32 15.625C32 16.1875 31.9167 16.7292 31.75 17.25C31.5833 17.7708 31.375 18.25 31.125 18.6875L34.9375 22.5L33.1875 24.25ZM26.375 18.75C27.25 18.75 27.9896 18.4479 28.5938 17.8437C29.1979 17.2396 29.5 16.5 29.5 15.625C29.5 14.75 29.1979 14.0104 28.5938 13.4062C27.9896 12.8021 27.25 12.5 26.375 12.5C25.5 12.5 24.7604 12.8021 24.1562 13.4062C23.5521 14.0104 23.25 14.75 23.25 15.625C23.25 16.5 23.5521 17.2396 24.1562 17.8437C24.7604 18.4479 25.5 18.75 26.375 18.75Z" fill="#4C4C4C"/>
</g>
</svg>
