<svg width="235" height="53" viewBox="0 0 235 53" fill="none" xmlns="http://www.w3.org/2000/svg">
<rect x="1" y="1" width="233" height="50.2222" rx="25.1111" fill="#D739FF" stroke="#4C4C4C" stroke-width="2"/>
<path d="M42.2637 35.608C42.2637 35.888 41.3863 36.028 39.6317 36.028L38.0637 35.944C37.1303 35.8693 36.6637 35.7387 36.6637 35.552V16.764C36.6637 16.4467 37.597 16.288 39.4637 16.288C41.3303 16.288 42.2637 16.4467 42.2637 16.764V23.932L45.6797 16.764C45.8103 16.5027 46.557 16.372 47.9197 16.372C50.4023 16.372 51.709 16.5867 51.8397 17.016C51.8397 17.0533 51.8303 17.0907 51.8117 17.128L46.9397 25.92L52.5957 33.732C52.5957 33.7693 52.4183 33.928 52.0637 34.208C51.205 34.9547 50.197 35.5427 49.0397 35.972C48.685 36.1027 48.3303 36.168 47.9757 36.168L47.3037 36.112C46.7063 35.9627 46.2397 35.58 45.9037 34.964L42.7117 28.86H42.2637V35.608ZM63.127 24.184C63.4816 24.184 63.659 24.8373 63.659 26.144C63.659 26.536 63.6123 27.0027 63.519 27.544C63.4443 28.0667 63.295 28.328 63.071 28.328H59.515V31.128H64.667C64.9843 31.128 65.199 31.5387 65.311 32.36C65.367 32.7147 65.395 33.0973 65.395 33.508C65.395 33.9 65.339 34.4133 65.227 35.048C65.115 35.6827 64.9283 36 64.667 36H55.091C54.3816 36 54.027 35.7107 54.027 35.132V17.128C54.027 16.6427 54.2416 16.4 54.671 16.4H64.695C65.087 16.4 65.283 17.2307 65.283 18.892C65.283 20.5347 65.087 21.356 64.695 21.356H59.515V24.184H63.127ZM76.9355 24.184C77.2902 24.184 77.4675 24.8373 77.4675 26.144C77.4675 26.536 77.4209 27.0027 77.3275 27.544C77.2529 28.0667 77.1035 28.328 76.8795 28.328H73.3235V31.128H78.4755C78.7929 31.128 79.0075 31.5387 79.1195 32.36C79.1755 32.7147 79.2035 33.0973 79.2035 33.508C79.2035 33.9 79.1475 34.4133 79.0355 35.048C78.9235 35.6827 78.7369 36 78.4755 36H68.8995C68.1902 36 67.8355 35.7107 67.8355 35.132V17.128C67.8355 16.6427 68.0502 16.4 68.4795 16.4H78.5035C78.8955 16.4 79.0915 17.2307 79.0915 18.892C79.0915 20.5347 78.8955 21.356 78.5035 21.356H73.3235V24.184H76.9355ZM84.0801 36.056C82.3815 36.056 81.5321 35.8693 81.5321 35.496V17.352C81.5321 16.7173 81.8215 16.4 82.4001 16.4H87.3281C90.0908 16.4 92.0788 16.9693 93.2921 18.108C94.5241 19.2467 95.1401 20.8987 95.1401 23.064C95.1401 24.856 94.5615 26.4987 93.4041 27.992C92.8255 28.7387 91.9761 29.336 90.8561 29.784C89.7361 30.232 88.4295 30.456 86.9361 30.456V35.468C86.9361 35.692 86.5815 35.8507 85.8721 35.944C85.1815 36.0187 84.5841 36.056 84.0801 36.056ZM86.9361 21.272V25.696H87.3001C87.9535 25.696 88.5041 25.4907 88.9521 25.08C89.4001 24.6693 89.6241 24.0907 89.6241 23.344C89.6241 22.5973 89.4655 22.0653 89.1481 21.748C88.8495 21.4307 88.3081 21.272 87.5241 21.272H86.9361ZM110.898 16.148C112.261 16.148 113.456 16.344 114.482 16.736C115.528 17.1093 116.05 17.6227 116.05 18.276C116.05 18.9293 115.798 19.7413 115.294 20.712C114.809 21.664 114.398 22.14 114.062 22.14C113.969 22.14 113.857 22.0933 113.726 22C113.614 21.888 113.334 21.776 112.886 21.664C112.457 21.5333 112.084 21.468 111.766 21.468C110.684 21.468 109.806 21.8507 109.134 22.616C108.481 23.3813 108.154 24.5573 108.154 26.144C108.154 27.712 108.49 28.8787 109.162 29.644C109.853 30.4093 110.721 30.792 111.766 30.792C112.196 30.792 112.672 30.736 113.194 30.624C113.736 30.4933 114.118 30.316 114.342 30.092C114.38 30.0547 114.454 30.036 114.566 30.036C114.678 30.036 114.884 30.2507 115.182 30.68C115.5 31.0907 115.789 31.6413 116.05 32.332C116.312 33.004 116.442 33.5267 116.442 33.9C116.442 34.628 115.882 35.2067 114.762 35.636C113.642 36.0653 112.317 36.28 110.786 36.28C108.322 36.28 106.297 35.412 104.71 33.676C103.124 31.94 102.33 29.4947 102.33 26.34C102.33 23.1667 103.142 20.6747 104.766 18.864C106.409 17.0533 108.453 16.148 110.898 16.148ZM126.902 36.28C124.288 36.28 122.151 35.4213 120.49 33.704C118.847 31.9867 118.026 29.4853 118.026 26.2C118.026 22.896 118.856 20.3947 120.518 18.696C122.198 16.9973 124.354 16.148 126.986 16.148C129.636 16.148 131.774 16.988 133.398 18.668C135.022 20.3293 135.834 22.8587 135.834 26.256C135.834 29.6347 135.003 32.1547 133.342 33.816C131.68 35.4587 129.534 36.28 126.902 36.28ZM126.93 21.524C126.034 21.524 125.278 21.9347 124.662 22.756C124.064 23.5773 123.766 24.7347 123.766 26.228C123.766 27.7027 124.055 28.8413 124.634 29.644C125.212 30.428 125.968 30.82 126.902 30.82C127.854 30.82 128.619 30.4187 129.198 29.616C129.795 28.8133 130.094 27.6653 130.094 26.172C130.094 24.6787 129.786 23.5307 129.17 22.728C128.572 21.9253 127.826 21.524 126.93 21.524ZM137.802 34.348V16.932C137.802 16.54 138.744 16.344 140.63 16.344C142.534 16.344 143.486 16.54 143.486 16.932V30.652H147.798C148.134 30.652 148.367 31.0907 148.498 31.968C148.554 32.3973 148.582 32.836 148.582 33.284C148.582 33.732 148.554 34.1893 148.498 34.656C148.348 35.552 148.106 36 147.77 36H139.146C138.735 36 138.408 35.832 138.166 35.496C137.923 35.16 137.802 34.7773 137.802 34.348ZM158.566 36.28C155.952 36.28 153.815 35.4213 152.154 33.704C150.511 31.9867 149.69 29.4853 149.69 26.2C149.69 22.896 150.52 20.3947 152.182 18.696C153.862 16.9973 156.018 16.148 158.65 16.148C161.3 16.148 163.438 16.988 165.062 18.668C166.686 20.3293 167.498 22.8587 167.498 26.256C167.498 29.6347 166.667 32.1547 165.006 33.816C163.344 35.4587 161.198 36.28 158.566 36.28ZM158.594 21.524C157.698 21.524 156.942 21.9347 156.326 22.756C155.728 23.5773 155.43 24.7347 155.43 26.228C155.43 27.7027 155.719 28.8413 156.298 29.644C156.876 30.428 157.632 30.82 158.566 30.82C159.518 30.82 160.283 30.4187 160.862 29.616C161.459 28.8133 161.758 27.6653 161.758 26.172C161.758 24.6787 161.45 23.5307 160.834 22.728C160.236 21.9253 159.49 21.524 158.594 21.524ZM175.094 35.608C175.094 35.9067 174.207 36.056 172.434 36.056C170.642 36.056 169.746 35.916 169.746 35.636V17.38C169.746 16.7267 170.091 16.4 170.782 16.4H176.13C181.039 16.4 183.494 18.3133 183.494 22.14C183.494 23.2973 183.27 24.352 182.822 25.304C182.374 26.2373 181.739 26.984 180.918 27.544L184.446 33.424C184.296 33.872 183.811 34.3853 182.99 34.964C181.87 35.7667 180.946 36.168 180.218 36.168C179.49 36.168 178.948 35.9067 178.594 35.384L175.962 29.252H175.094V35.608ZM175.094 21.356V25.556H175.234C177.007 25.556 177.894 24.8187 177.894 23.344C177.894 22.672 177.716 22.1773 177.362 21.86C177.026 21.524 176.466 21.356 175.682 21.356H175.094ZM186.989 29.168C187.344 29.448 187.951 29.8307 188.809 30.316C189.687 30.8013 190.517 31.044 191.301 31.044C192.104 31.044 192.505 30.736 192.505 30.12C192.505 29.84 192.393 29.5973 192.169 29.392C191.945 29.168 191.535 28.916 190.937 28.636C190.34 28.356 189.892 28.1413 189.593 27.992C189.295 27.824 188.893 27.5627 188.389 27.208C187.904 26.8347 187.531 26.452 187.269 26.06C186.523 24.996 186.149 23.6427 186.149 22C186.149 20.3573 186.756 18.976 187.969 17.856C189.201 16.7173 190.807 16.148 192.785 16.148C194.129 16.148 195.371 16.2973 196.509 16.596C197.648 16.876 198.236 17.2493 198.273 17.716C198.273 17.772 198.273 17.828 198.273 17.884C198.273 18.5373 198.068 19.368 197.657 20.376C197.247 21.3653 196.957 21.916 196.789 22.028C195.595 21.412 194.521 21.104 193.569 21.104C192.636 21.104 192.169 21.44 192.169 22.112C192.169 22.5227 192.515 22.8867 193.205 23.204C193.355 23.2787 193.569 23.3813 193.849 23.512C194.129 23.6427 194.447 23.8013 194.801 23.988C195.175 24.156 195.567 24.38 195.977 24.66C196.407 24.9213 196.864 25.276 197.349 25.724C198.339 26.6573 198.833 27.8893 198.833 29.42C198.833 31.4173 198.283 33.0507 197.181 34.32C196.08 35.5893 194.381 36.2427 192.085 36.28C190.965 36.28 189.948 36.1867 189.033 36C188.137 35.8133 187.353 35.4493 186.681 34.908C186.009 34.3667 185.673 33.7133 185.673 32.948C185.673 32.1827 185.813 31.4267 186.093 30.68C186.373 29.9147 186.672 29.4107 186.989 29.168Z" fill="black"/>
</svg>
