<svg width="44" height="44" viewBox="0 0 44 44" fill="none" xmlns="http://www.w3.org/2000/svg">
<circle id="circle" cx="22" cy="22" r="21" fill="#a1f150" stroke="#818181" stroke-width="2"/>
<mask id="mask0_105_17" style="mask-type:alpha" maskUnits="userSpaceOnUse" x="6" y="6" width="32" height="32">
<rect x="6.28571" y="6.28571" width="31.4286" height="31.4286" fill="#a1f150"/>
</mask>
<g mask="url(#mask0_105_17)">
<path d="M12.8333 31.1667H14.6667L25.9613 19.872L24.128 18.0387L12.8333 29.3333V31.1667ZM31.5595 17.9732L25.9941 12.4732L27.8274 10.6399C28.3294 10.1379 28.9462 9.8869 29.6777 9.8869C30.4085 9.8869 31.0248 10.1379 31.5268 10.6399L33.3601 12.4732C33.8621 12.9752 34.124 13.5811 34.1458 14.2908C34.1677 14.9997 33.9276 15.6052 33.4256 16.1071L31.5595 17.9732ZM29.6607 19.9048L15.7798 33.7857H10.2143V28.2202L24.0952 14.3393L29.6607 19.9048Z" fill="#4C4C4C"/>
</g>
</svg>
