<svg width="118" height="76" viewBox="0 0 118 76" fill="none" xmlns="http://www.w3.org/2000/svg">
<path d="M29.3251 26.1599C29.2896 26.2462 28.7416 26.0713 27.6811 25.6352C26.633 25.2042 26.1266 24.9455 26.1621 24.8592L30.0801 15.3335L29.4512 15.0749C29.1553 14.9532 29.0634 14.5982 29.1756 14.01C29.2096 13.8222 29.2824 13.5926 29.394 13.3213C29.5055 13.05 29.7237 12.7649 30.0485 12.466C30.5183 12.0248 31.0245 11.9158 31.5671 12.1389C31.9247 12.286 32.216 12.5067 32.4409 12.801C32.6833 13.0881 32.8295 13.3285 32.8796 13.5221C32.9471 13.7084 32.9758 13.8139 32.9657 13.8386C34.0556 13.5371 35.0815 13.5842 36.0434 13.9797C37.0052 14.3753 37.6767 15.0911 38.0579 16.1273C38.4441 17.1511 38.3152 18.446 37.6711 20.0121C37.032 21.5658 36.1897 22.6323 35.1441 23.2114C34.1036 23.7783 33.0531 23.8437 31.9926 23.4076C31.5117 23.2098 31.0841 23.0051 30.7097 22.7935L29.3251 26.1599ZM34.0091 16.9276C33.7995 16.8414 33.5681 16.8255 33.315 16.88L31.9685 20.1539C32.1679 20.2648 32.3293 20.3456 32.4527 20.3963C32.5883 20.452 32.6931 20.4952 32.7671 20.5256C33.293 20.6842 33.812 20.1407 34.3243 18.8953C34.7554 17.8472 34.6503 17.1913 34.0091 16.9276ZM41.0514 27.0247C41.0159 27.111 40.4371 26.9234 39.3149 26.462C38.2029 25.9759 37.6621 25.6958 37.6926 25.6218L40.2183 19.481L39.7189 19.2756C39.5216 19.1945 39.4095 19.0114 39.3825 18.7264C39.373 18.4341 39.4418 18.1092 39.5889 17.7516C40.1366 16.4198 40.8051 15.9162 41.5943 16.2408C42.1492 16.469 42.5406 16.8318 42.7686 17.3292C43.0016 17.8142 43.0293 18.2726 42.8518 18.7042C43.3187 18.3051 43.8288 18.0463 44.3821 17.9278C44.9529 17.8021 45.4664 17.8331 45.9226 18.0207C46.6378 18.3148 46.9934 18.6773 46.9892 19.1081C46.9856 19.2219 46.9432 19.3775 46.8621 19.5748C46.786 19.7598 46.5849 20.0735 46.2587 20.516C45.9448 20.9636 45.6806 21.2731 45.466 21.4443C45.2514 21.6156 45.1318 21.6961 45.1071 21.686C45.0824 21.6758 44.983 21.5845 44.8089 21.412C44.6522 21.2322 44.4937 21.1093 44.3333 21.0434C43.8648 20.8507 43.4783 21.1243 43.174 21.8642L41.0514 27.0247ZM51.5241 30.7691C50.5595 30.9058 49.4669 30.7232 48.2461 30.2212C47.0252 29.7192 46.1655 28.8826 45.6668 27.7116C45.1731 26.5283 45.2281 25.2029 45.8316 23.7355C46.4402 22.2558 47.3304 21.2307 48.5022 20.6601C49.6863 20.0946 50.895 20.0655 52.1281 20.5726C53.3612 21.0797 54.1814 21.7846 54.5886 22.6873C55.0082 23.5951 55.0329 24.499 54.6626 25.3992C53.841 27.3968 52.2834 27.924 49.9897 26.9808L48.7134 26.456C48.5613 26.8259 48.5534 27.1254 48.6898 27.3546C48.8437 27.5764 49.1179 27.7685 49.5125 27.9307C50.3757 28.2857 51.2769 28.4256 52.2161 28.3505C52.2335 28.3432 52.2535 28.4524 52.276 28.6779C52.3539 29.3299 52.3168 29.8408 52.1646 30.2107C52.0175 30.5683 51.804 30.7544 51.5241 30.7691ZM51.4106 24.4728C51.6236 23.9548 51.4773 23.5919 50.9717 23.384C50.7374 23.2877 50.5035 23.278 50.27 23.355C50.0539 23.4247 49.8901 23.5952 49.7785 23.8665L49.5427 24.4399L50.5415 24.8506C50.9484 25.018 51.2381 24.892 51.4106 24.4728ZM55.0802 28.9228C55.8306 29.9378 56.4955 30.5644 57.0751 30.8028C57.445 30.9549 57.6833 30.9015 57.7898 30.6425C57.8658 30.4576 57.6441 30.0853 57.1246 29.5256C55.8419 28.2629 55.4946 26.9163 56.083 25.4859C56.4583 24.5734 57.0778 24.0136 57.9415 23.8066C58.8052 23.5995 59.6995 23.6861 60.6243 24.0664C61.5615 24.4518 62.3101 24.875 62.8702 25.336C63.4426 25.8021 63.6629 26.1954 63.531 26.516C63.4195 26.7873 63.1367 27.0891 62.6829 27.4215C62.2413 27.7589 61.9636 27.9258 61.8497 27.9222C61.4412 27.4082 60.9287 27.0245 60.3121 26.7709C59.9791 26.634 59.7645 26.6827 59.6681 26.917C59.6073 27.0649 59.6157 27.2198 59.6933 27.3815C59.7884 27.5359 59.9756 27.7643 60.255 28.0665C60.5394 28.3565 60.7672 28.6088 60.9385 28.8234C61.122 29.043 61.31 29.3222 61.5023 29.6607C61.9015 30.3727 61.9464 31.1048 61.637 31.857C61.2313 32.8435 60.5748 33.5106 59.6677 33.8584C58.7656 34.1939 57.6548 34.0903 56.3353 33.5477C55.4598 33.1877 54.7253 32.7126 54.1318 32.1226C53.5383 31.5325 53.3481 30.9785 53.5611 30.4606C53.7031 30.1153 53.9329 29.7845 54.2504 29.4682C54.5803 29.1569 54.8569 28.9751 55.0802 28.9228ZM63.4075 32.3472C64.1579 33.3622 64.8228 33.9888 65.4024 34.2272C65.7723 34.3793 66.0105 34.3259 66.1171 34.067C66.1931 33.882 65.9714 33.5097 65.4519 32.95C64.1691 31.6873 63.8219 30.3407 64.4103 28.9103C64.7856 27.9978 65.4051 27.438 66.2688 27.231C67.1325 27.0239 68.0268 27.1105 68.9516 27.4908C69.8888 27.8762 70.6374 28.2994 71.1975 28.7604C71.7699 29.2265 71.9902 29.6198 71.8583 29.9404C71.7467 30.2117 71.464 30.5135 71.0101 30.8459C70.5686 31.1833 70.2909 31.3502 70.177 31.3466C69.7685 30.8326 69.256 30.4489 68.6394 30.1953C68.3064 30.0584 68.0918 30.1071 67.9954 30.3414C67.9346 30.4893 67.943 30.6442 68.0206 30.8059C68.1157 30.9603 68.3029 31.1887 68.5822 31.4909C68.8667 31.7809 69.0945 32.0332 69.2657 32.2478C69.4493 32.4674 69.6373 32.7466 69.8296 33.0851C70.2288 33.7971 70.2737 34.5292 69.9643 35.2814C69.5585 36.2679 68.9021 36.935 67.9949 37.2828C67.0929 37.6183 65.9821 37.5147 64.6626 36.9721C63.7871 36.6121 63.0526 36.137 62.4591 35.547C61.8656 34.9569 61.6754 34.4029 61.8884 33.885C62.0304 33.5397 62.2602 33.2089 62.5777 32.8926C62.9076 32.5813 63.1842 32.3995 63.4075 32.3472ZM81.8805 43.7282C81.845 43.8145 81.297 43.6396 80.2365 43.2035C79.1883 42.7724 78.687 42.5014 78.7327 42.3905L80.9465 37.008C81.2001 36.3914 81.1235 35.9995 80.7165 35.8321C80.5069 35.7459 80.1736 35.7675 79.7168 35.8968L77.2823 41.8157C77.2316 41.939 76.676 41.7826 75.6155 41.3465C74.5673 40.9154 74.0711 40.6321 74.1269 40.4964L76.6146 34.4481L76.1522 34.2579C75.7453 34.0906 75.7168 33.5815 76.0668 32.7306C76.224 32.3484 76.4577 31.9904 76.768 31.6566C77.1885 31.1952 77.6207 31.0558 78.0646 31.2383C78.5085 31.4209 78.8858 31.713 79.1963 32.1146C79.5192 32.5213 79.6807 32.8472 79.6808 33.0923C80.7243 32.7285 81.7085 32.7368 82.6334 33.1171C83.5706 33.5025 84.2036 34.1016 84.5324 34.9145C85.4367 34.6087 86.3574 34.6486 87.2946 35.034C89.3293 35.8707 89.8369 37.5283 88.8175 40.0068L86.5047 45.6298C86.4692 45.7161 85.9212 45.5412 84.8607 45.1051C83.8126 44.6741 83.3113 44.4031 83.357 44.2921L85.5708 38.9096C85.8244 38.293 85.7477 37.9011 85.3408 37.7337C85.1188 37.6425 84.7794 37.6615 84.3226 37.7908L81.8805 43.7282ZM95.2378 48.7453C94.2733 48.8821 93.1806 48.6995 91.9598 48.1974C90.739 47.6954 89.8793 46.8589 89.3805 45.6879C88.8869 44.5045 88.9418 43.1792 89.5454 41.7118C90.154 40.2321 91.0442 39.2069 92.216 38.6364C93.4001 38.0709 94.6087 38.0417 95.8419 38.5488C97.075 39.0559 97.8952 39.7608 98.3024 40.6635C98.722 41.5713 98.7466 42.4753 98.3764 43.3755C97.5548 45.3731 95.9971 45.9003 93.7035 44.9571L92.4272 44.4322C92.275 44.8022 92.2672 45.1017 92.4036 45.3308C92.5575 45.5527 92.8317 45.7447 93.2263 45.907C94.0895 46.262 94.9907 46.4019 95.9298 46.3268C95.9473 46.3195 95.9672 46.4286 95.9898 46.6542C96.0677 47.3061 96.0305 47.817 95.8784 48.187C95.7313 48.5446 95.5178 48.7307 95.2378 48.7453ZM95.1243 42.449C95.3374 41.9311 95.1911 41.5682 94.6855 41.3603C94.4512 41.2639 94.2173 41.2542 93.9838 41.3312C93.7677 41.4009 93.6039 41.5714 93.4923 41.8427L93.2564 42.4161L94.2553 42.8269C94.6622 42.9942 94.9519 42.8683 95.1243 42.449ZM101.686 47.4395C101.655 47.5135 101.196 47.3679 100.308 47.0028C99.4329 46.6428 99.0078 46.4319 99.0331 46.3703L102.414 37.0994C102.454 37.0007 103.036 37.1821 104.158 37.6436C105.292 38.1101 105.842 38.3865 105.806 38.4728L101.686 47.4395ZM98.1773 47.2942C98.2128 47.2079 98.7978 47.398 99.9323 47.8646C101.079 48.3362 101.637 48.6089 101.607 48.6829L100.511 51.3464C100.461 51.4697 99.8619 51.2956 98.7151 50.824C97.5806 50.3575 97.0286 50.0872 97.059 50.0132L98.1773 47.2942Z" fill="#4C4C4C"/>
<path d="M57.5184 44.5823C58.5219 44.1206 59.0513 42.8971 58.701 41.8496C58.3506 40.8021 57.2532 40.3272 56.2497 40.7889L57.5184 44.5823ZM2.30944 66.25C1.84764 67.3172 2.24929 68.5181 3.20656 68.9323L18.8062 75.6827C19.7634 76.0969 20.9138 75.5676 21.3756 74.5004C21.8374 73.4332 21.4358 72.2322 20.4785 71.818L6.6122 65.8177L13.3016 50.3589C13.7634 49.2917 13.3617 48.0908 12.4045 47.6765C11.4472 47.2623 10.2968 47.7916 9.83502 48.8588L2.30944 66.25ZM56.2497 40.7889L3.40838 65.1033L4.67709 68.8967L57.5184 44.5823L56.2497 40.7889Z" fill="#4C4C4C"/>
</svg>
