<svg width="118" height="76" viewBox="0 0 118 76" fill="none" xmlns="http://www.w3.org/2000/svg">
<path d="M28.2749 21.8355C27.1527 21.3741 26.6424 21.02 26.7438 20.7734L31.6736 8.78763C31.8461 8.36838 32.1234 8.23735 32.5057 8.39455L35.7612 9.73329C37.5862 10.4838 38.7448 11.4 39.237 12.4818C39.7415 13.5686 39.6996 14.8273 39.1112 16.2577C38.6243 17.4415 37.7957 18.3694 36.6254 19.0415C36.0403 19.3775 35.3169 19.5414 34.4553 19.5331C33.5937 19.5247 32.6696 19.3177 31.6831 18.9121L30.3213 22.2229C30.2605 22.3709 29.9831 22.3794 29.4891 22.2483C29.0126 22.11 28.6078 21.9724 28.2749 21.8355ZM34.1785 12.8452L32.9764 15.7677L33.2169 15.8665C33.6485 16.044 34.0681 16.058 34.4756 15.9084C34.8831 15.7588 35.1883 15.4374 35.3912 14.9442C35.5941 14.4509 35.6338 14.0564 35.5104 13.7606C35.3993 13.4698 35.0848 13.2179 34.5669 13.0049L34.1785 12.8452ZM41.1959 27.0841C41.1604 27.1704 40.5816 26.9829 39.4595 26.5214C38.3474 26.0353 37.8067 25.7552 37.8371 25.6812L40.3629 19.5404L39.8634 19.335C39.6661 19.2539 39.554 19.0708 39.5271 18.7858C39.5175 18.4936 39.5863 18.1686 39.7334 17.811C40.2811 16.4793 40.9496 15.9757 41.7388 16.3002C42.2937 16.5284 42.6851 16.8912 42.9131 17.3886C43.1461 17.8737 43.1738 18.332 42.9963 18.7636C43.4632 18.3645 43.9733 18.1057 44.5266 17.9873C45.0974 17.8615 45.6109 17.8925 46.0671 18.0801C46.7823 18.3742 47.1379 18.7367 47.1337 19.1675C47.1301 19.2813 47.0877 19.4369 47.0066 19.6342C46.9305 19.8192 46.7294 20.1329 46.4032 20.5755C46.0893 21.0231 45.8251 21.3325 45.6105 21.5037C45.3959 21.675 45.2763 21.7555 45.2516 21.7454C45.2269 21.7353 45.1275 21.6439 44.9534 21.4714C44.7967 21.2916 44.6382 21.1688 44.4779 21.1028C44.0093 20.9101 43.6228 21.1837 43.3185 21.9236L41.1959 27.0841ZM51.6686 30.8285C50.704 30.9653 49.6114 30.7826 48.3906 30.2806C47.1698 29.7786 46.31 28.9421 45.8113 27.7711C45.3176 26.5877 45.3726 25.2624 45.9761 23.795C46.5847 22.3152 47.4749 21.2901 48.6467 20.7196C49.8308 20.1541 51.0395 20.1249 52.2726 20.632C53.5057 21.1391 54.3259 21.844 54.7332 22.7467C55.1527 23.6545 55.1774 24.5585 54.8071 25.4586C53.9855 27.4563 52.4279 27.9835 50.1342 27.0403L48.8579 26.5154C48.7058 26.8853 48.6979 27.1849 48.8344 27.414C48.9882 27.6358 49.2624 27.8279 49.657 27.9902C50.5202 28.3451 51.4214 28.4851 52.3606 28.4099C52.378 28.4027 52.398 28.5118 52.4205 28.7373C52.4984 29.3893 52.4613 29.9002 52.3091 30.2701C52.162 30.6277 51.9485 30.8139 51.6686 30.8285ZM51.5551 24.5322C51.7681 24.0143 51.6218 23.6514 51.1162 23.4435C50.8819 23.3471 50.648 23.3374 50.4145 23.4144C50.1984 23.4841 50.0346 23.6546 49.923 23.9259L49.6872 24.4993L50.686 24.91C51.0929 25.0774 51.3826 24.9514 51.5551 24.5322ZM55.2247 28.9822C55.9751 29.9972 56.64 30.6239 57.2196 30.8622C57.5895 31.0143 57.8278 30.9609 57.9343 30.702C58.0103 30.517 57.7886 30.1447 57.2691 29.5851C55.9864 28.3223 55.6392 26.9757 56.2275 25.5453C56.6028 24.6328 57.2223 24.0731 58.086 23.866C58.9497 23.6589 59.844 23.7455 60.7688 24.1259C61.706 24.5112 62.4546 24.9344 63.0147 25.3954C63.5871 25.8615 63.8074 26.2548 63.6755 26.5754C63.564 26.8467 63.2812 27.1485 62.8274 27.4809C62.3858 27.8183 62.1081 27.9852 61.9942 27.9817C61.5857 27.4677 61.0732 27.0839 60.4566 26.8303C60.1237 26.6934 59.909 26.7421 59.8126 26.9764C59.7518 27.1244 59.7602 27.2792 59.8378 27.4409C59.9329 27.5953 60.1201 27.8237 60.3995 28.126C60.6839 28.4159 60.9117 28.6682 61.083 28.8828C61.2665 29.1025 61.4545 29.3816 61.6468 29.7202C62.046 30.4322 62.0909 31.1642 61.7815 31.9164C61.3758 32.9029 60.7193 33.5701 59.8122 33.9178C58.9101 34.2533 57.7993 34.1497 56.4798 33.6071C55.6043 33.2471 54.8698 32.772 54.2763 32.182C53.6828 31.5919 53.4926 31.0379 53.7056 30.52C53.8476 30.1748 54.0774 29.844 54.3949 29.5276C54.7248 29.2164 55.0014 29.0346 55.2247 28.9822ZM63.552 32.4066C64.3024 33.4216 64.9673 34.0483 65.5469 34.2866C65.9168 34.4387 66.1551 34.3853 66.2616 34.1264C66.3376 33.9414 66.1159 33.5691 65.5964 33.0095C64.3137 31.7467 63.9664 30.4001 64.5548 28.9697C64.9301 28.0572 65.5496 27.4975 66.4133 27.2904C67.277 27.0833 68.1713 27.1699 69.0961 27.5503C70.0333 27.9356 70.7819 28.3588 71.342 28.8198C71.9144 29.2859 72.1347 29.6792 72.0028 29.9998C71.8913 30.2711 71.6085 30.5729 71.1547 30.9053C70.7131 31.2427 70.4354 31.4096 70.3215 31.4061C69.913 30.8921 69.4005 30.5083 68.7839 30.2547C68.4509 30.1178 68.2363 30.1665 68.1399 30.4008C68.0791 30.5488 68.0875 30.7036 68.1651 30.8653C68.2602 31.0197 68.4474 31.2481 68.7268 31.5504C69.0112 31.8403 69.239 32.0926 69.4103 32.3072C69.5938 32.5269 69.7818 32.806 69.9741 33.1446C70.3733 33.8566 70.4182 34.5886 70.1088 35.3408C69.7031 36.3273 69.0466 36.9945 68.1395 37.3422C67.2374 37.6777 66.1266 37.5741 64.8071 37.0315C63.9316 36.6715 63.1971 36.1964 62.6036 35.6064C62.0101 35.0163 61.8199 34.4623 62.0329 33.9444C62.1749 33.5992 62.4047 33.2684 62.7222 32.952C63.0521 32.6408 63.3287 32.459 63.552 32.4066ZM82.025 43.7876C81.9895 43.8739 81.4415 43.699 80.381 43.2629C79.3328 42.8319 78.8315 42.5609 78.8772 42.4499L81.091 37.0674C81.3446 36.4508 81.268 36.0589 80.861 35.8916C80.6514 35.8053 80.3182 35.8269 79.8613 35.9562L77.4268 41.8751C77.3761 41.9984 76.8205 41.842 75.76 41.4059C74.7118 40.9749 74.2156 40.6915 74.2714 40.5559L76.7592 34.5075L76.2967 34.3173C75.8898 34.15 75.8613 33.6409 76.2113 32.7901C76.3685 32.4078 76.6022 32.0498 76.9125 31.7161C77.333 31.2546 77.7652 31.1152 78.2091 31.2977C78.653 31.4803 79.0303 31.7724 79.3409 32.174C79.6638 32.5807 79.8253 32.9066 79.8254 33.1518C80.8689 32.788 81.853 32.7962 82.7779 33.1766C83.7151 33.5619 84.3481 34.1611 84.677 34.9739C85.5812 34.6682 86.502 34.708 87.4391 35.0934C89.4738 35.9301 89.9814 37.5877 88.962 40.0663L86.6492 45.6892C86.6137 45.7755 86.0657 45.6006 85.0052 45.1645C83.9571 44.7335 83.4558 44.4625 83.5015 44.3515L85.7153 38.969C85.9689 38.3525 85.8922 37.9605 85.4853 37.7932C85.2633 37.7019 84.9239 37.7209 84.4671 37.8502L82.025 43.7876ZM95.3823 48.8047C94.4178 48.9415 93.3251 48.7589 92.1043 48.2569C90.8835 47.7548 90.0238 46.9183 89.525 45.7473C89.0314 44.564 89.0863 43.2386 89.6899 41.7712C90.2985 40.2915 91.1887 39.2664 92.3605 38.6958C93.5446 38.1303 94.7532 38.1011 95.9864 38.6082C97.2195 39.1153 98.0397 39.8202 98.4469 40.723C98.8665 41.6307 98.8912 42.5347 98.5209 43.4349C97.6993 45.4325 96.1416 45.9597 93.848 45.0165L92.5717 44.4917C92.4195 44.8616 92.4117 45.1611 92.5481 45.3902C92.702 45.6121 92.9762 45.8041 93.3708 45.9664C94.234 46.3214 95.1352 46.4613 96.0744 46.3862C96.0918 46.3789 96.1117 46.4881 96.1343 46.7136C96.2122 47.3655 96.175 47.8765 96.0229 48.2464C95.8758 48.604 95.6623 48.7901 95.3823 48.8047ZM95.2689 42.5084C95.4819 41.9905 95.3356 41.6276 94.83 41.4197C94.5957 41.3234 94.3618 41.3137 94.1283 41.3907C93.9122 41.4604 93.7484 41.6309 93.6368 41.9022L93.4009 42.4755L94.3998 42.8863C94.8067 43.0536 95.0964 42.9277 95.2689 42.5084ZM101.83 47.4989C101.8 47.5729 101.341 47.4274 100.453 47.0622C99.5774 46.7022 99.1523 46.4914 99.1776 46.4297L102.558 37.1588C102.599 37.0601 103.18 37.2415 104.302 37.703C105.437 38.1695 105.986 38.446 105.951 38.5323L101.83 47.4989ZM98.3219 47.3537C98.3574 47.2673 98.9423 47.4574 100.077 47.924C101.224 48.3956 101.782 48.6684 101.751 48.7424L100.656 51.4059C100.605 51.5292 100.006 51.355 98.8596 50.8834C97.7251 50.4169 97.1731 50.1466 97.2035 50.0727L98.3219 47.3537Z" fill="#4C4C4C"/>
<path d="M57.5184 44.5823C58.5219 44.1206 59.0513 42.8971 58.701 41.8496C58.3506 40.8021 57.2532 40.3272 56.2497 40.7889L57.5184 44.5823ZM2.30944 66.25C1.84764 67.3172 2.24929 68.5181 3.20656 68.9323L18.8062 75.6827C19.7634 76.0969 20.9138 75.5676 21.3756 74.5004C21.8374 73.4332 21.4358 72.2322 20.4785 71.818L6.6122 65.8177L13.3016 50.3589C13.7634 49.2917 13.3617 48.0908 12.4045 47.6765C11.4472 47.2623 10.2968 47.7916 9.83502 48.8588L2.30944 66.25ZM56.2497 40.7889L3.40838 65.1033L4.67709 68.8967L57.5184 44.5823L56.2497 40.7889Z" fill="#4C4C4C"/>
</svg>
