<svg width="235" height="53" viewBox="0 0 235 53" fill="none" xmlns="http://www.w3.org/2000/svg">
<rect x="1" y="1" width="233" height="50.2222" rx="25.1111" fill="#FF4D4D" stroke="#4C4C4C" stroke-width="2"/>
<path d="M70.4765 35.608C70.4765 35.9067 69.5898 36.056 67.8165 36.056C66.0245 36.056 65.1285 35.916 65.1285 35.636V17.38C65.1285 16.7267 65.4738 16.4 66.1645 16.4H71.5125C76.4218 16.4 78.8765 18.3133 78.8765 22.14C78.8765 23.2973 78.6525 24.352 78.2045 25.304C77.7565 26.2373 77.1218 26.984 76.3005 27.544L79.8285 33.424C79.6792 33.872 79.1938 34.3853 78.3725 34.964C77.2525 35.7667 76.3285 36.168 75.6005 36.168C74.8725 36.168 74.3312 35.9067 73.9765 35.384L71.3445 29.252H70.4765V35.608ZM70.4765 21.356V25.556H70.6165C72.3898 25.556 73.2765 24.8187 73.2765 23.344C73.2765 22.672 73.0992 22.1773 72.7445 21.86C72.4085 21.524 71.8485 21.356 71.0645 21.356H70.4765ZM90.7441 24.184C91.0988 24.184 91.2761 24.8373 91.2761 26.144C91.2761 26.536 91.2295 27.0027 91.1361 27.544C91.0615 28.0667 90.9121 28.328 90.6881 28.328H87.1321V31.128H92.2841C92.6015 31.128 92.8161 31.5387 92.9281 32.36C92.9841 32.7147 93.0121 33.0973 93.0121 33.508C93.0121 33.9 92.9561 34.4133 92.8441 35.048C92.7321 35.6827 92.5455 36 92.2841 36H82.7081C81.9988 36 81.6441 35.7107 81.6441 35.132V17.128C81.6441 16.6427 81.8588 16.4 82.2881 16.4H92.3121C92.7041 16.4 92.9001 17.2307 92.9001 18.892C92.9001 20.5347 92.7041 21.356 92.3121 21.356H87.1321V24.184H90.7441ZM115.053 36.028C113.391 36.028 112.561 35.8413 112.561 35.468L111.973 24.24L108.557 35.608C108.482 35.832 107.847 35.944 106.653 35.944C105.458 35.944 104.842 35.8413 104.805 35.636L101.277 24.128L100.885 35.3C100.866 35.58 100.511 35.776 99.8207 35.888C99.1301 35.9813 98.5514 36.028 98.0847 36.028C97.6367 36.028 97.1981 36 96.7687 35.944C95.8727 35.8133 95.4341 35.58 95.4527 35.244L96.0967 17.044C96.0967 16.596 97.2354 16.372 99.5127 16.372C100.185 16.372 101.006 16.428 101.977 16.54C102.947 16.6333 103.489 16.8293 103.601 17.128L106.737 25.948L109.481 17.1C109.649 16.6147 110.937 16.372 113.345 16.372C114.035 16.372 114.857 16.428 115.809 16.54C116.779 16.6333 117.265 16.8107 117.265 17.072L118.077 35.44C118.077 35.6453 117.713 35.7947 116.985 35.888C116.257 35.9813 115.613 36.028 115.053 36.028ZM129.171 36.28C126.558 36.28 124.42 35.4213 122.759 33.704C121.116 31.9867 120.295 29.4853 120.295 26.2C120.295 22.896 121.126 20.3947 122.787 18.696C124.467 16.9973 126.623 16.148 129.255 16.148C131.906 16.148 134.043 16.988 135.667 18.668C137.291 20.3293 138.103 22.8587 138.103 26.256C138.103 29.6347 137.272 32.1547 135.611 33.816C133.95 35.4587 131.803 36.28 129.171 36.28ZM129.199 21.524C128.303 21.524 127.547 21.9347 126.931 22.756C126.334 23.5773 126.035 24.7347 126.035 26.228C126.035 27.7027 126.324 28.8413 126.903 29.644C127.482 30.428 128.238 30.82 129.171 30.82C130.123 30.82 130.888 30.4187 131.467 29.616C132.064 28.8133 132.363 27.6653 132.363 26.172C132.363 24.6787 132.055 23.5307 131.439 22.728C130.842 21.9253 130.095 21.524 129.199 21.524ZM139.259 16.764C139.259 16.6707 139.661 16.5867 140.463 16.512C141.285 16.4187 141.957 16.372 142.479 16.372C144.551 16.372 145.634 16.6427 145.727 17.184L148.135 29.504L150.403 17.184C150.515 16.6427 151.673 16.372 153.875 16.372C154.417 16.372 155.098 16.4093 155.919 16.484C156.741 16.5587 157.151 16.6427 157.151 16.736L152.195 35.272C152.121 35.5707 151.57 35.7667 150.543 35.86C148.957 36.028 147.51 36.0653 146.203 35.972C144.915 35.86 144.234 35.6733 144.159 35.412L139.259 16.764ZM167.963 24.184C168.318 24.184 168.495 24.8373 168.495 26.144C168.495 26.536 168.448 27.0027 168.355 27.544C168.28 28.0667 168.131 28.328 167.907 28.328H164.351V31.128H169.503C169.82 31.128 170.035 31.5387 170.147 32.36C170.203 32.7147 170.231 33.0973 170.231 33.508C170.231 33.9 170.175 34.4133 170.063 35.048C169.951 35.6827 169.764 36 169.503 36H159.927C159.218 36 158.863 35.7107 158.863 35.132V17.128C158.863 16.6427 159.078 16.4 159.507 16.4H169.531C169.923 16.4 170.119 17.2307 170.119 18.892C170.119 20.5347 169.923 21.356 169.531 21.356H164.351V24.184H167.963Z" fill="black"/>
</svg>
