<svg width="227" height="154" viewBox="0 0 227 154" fill="none" xmlns="http://www.w3.org/2000/svg">
<path d="M137.908 95.4817C136.924 94.979 135.72 95.3688 135.217 96.3524C134.714 97.3359 135.104 98.5408 136.088 99.0435L137.908 95.4817ZM221.861 142.225C222.912 141.885 223.488 140.758 223.148 139.707L217.607 122.581C217.267 121.53 216.14 120.953 215.089 121.293C214.038 121.633 213.461 122.761 213.801 123.812L218.727 139.035L203.503 143.96C202.452 144.3 201.876 145.428 202.216 146.479C202.556 147.53 203.684 148.106 204.735 147.766L221.861 142.225ZM136.088 99.0435L220.335 142.103L222.155 138.541L137.908 95.4817L136.088 99.0435Z" fill="#4C4C4C"/>
<path d="M34.4946 72.2573C34.5395 72.5104 33.8352 72.8396 32.3816 73.2449C30.9127 73.6545 30.1572 73.7406 30.1151 73.5033L27.369 58.0304C27.2707 57.4766 27.5046 57.1208 28.0708 56.963L32.4544 55.7407C36.4786 54.6186 38.7784 55.6792 39.3541 58.9225C39.5282 59.9035 39.5032 60.8485 39.2792 61.7578C39.0523 62.6512 38.6444 63.4291 38.0554 64.0915L41.8318 68.2688C41.7768 68.6826 41.4561 69.2286 40.87 69.9068C40.0726 70.8431 39.3756 71.3944 38.7789 71.5608C38.1822 71.7272 37.6991 71.6294 37.3298 71.2675L34.25 66.6718L33.5385 66.8702L34.4946 72.2573ZM32.3507 60.1779L32.9825 63.7377L33.0973 63.7057C34.5509 63.3004 35.1667 62.4728 34.9449 61.2229C34.8438 60.6534 34.6241 60.2746 34.2856 60.0867C33.9597 59.8787 33.4754 59.8643 32.8327 60.0435L32.3507 60.1779ZM47.7676 68.7556C47.79 68.8822 47.0974 69.1417 45.6897 69.5342C44.2974 69.9225 43.5913 70.0612 43.5717 69.9504L41.5037 58.2983C41.484 58.1875 42.1704 57.938 43.5628 57.5498C44.9705 57.1573 45.6827 57.0085 45.6996 57.1034L47.7676 68.7556ZM45.4511 55.7033C45.4707 55.814 44.7767 56.0656 43.369 56.4581C41.9766 56.8464 41.272 56.993 41.2552 56.8981L40.6487 53.4808C40.6206 53.3225 41.3028 53.0493 42.6951 52.6611C44.1028 52.2686 44.8151 52.1198 44.8319 52.2147L45.4511 55.7033ZM54.0915 67.1417C52.6073 67.5556 51.3727 67.3851 50.3877 66.6303C49.3999 65.8597 48.7347 64.5093 48.3921 62.5791C48.0467 60.6332 48.3051 58.9671 49.1671 57.5811C50.0416 56.175 51.3586 55.2266 53.1182 54.736C54.8931 54.2411 56.426 54.2371 57.7167 54.724L59.8142 66.5423C60.022 67.7131 59.7216 68.7349 58.9131 69.6079C58.1073 70.4968 56.9853 71.1417 55.5471 71.5427C54.1088 71.9438 52.7898 72.1123 51.5901 72.0483C51.3698 71.7112 51.2329 71.3924 51.1795 71.0918C50.9998 70.0793 51.0285 69.2909 51.2656 68.7267C52.3722 68.8996 53.5069 68.824 54.6698 68.4998C55.5113 68.2651 55.8773 67.8393 55.7678 67.2223L55.6415 66.5103C55.006 66.8203 54.4894 67.0308 54.0915 67.1417ZM53.69 58.6362C52.6648 58.9221 52.2941 59.864 52.5777 61.4619C52.7546 62.4586 53.0686 63.0518 53.5198 63.2415C53.8164 63.3746 54.0947 63.4049 54.3549 63.3324C54.615 63.2599 54.8403 63.1722 55.0308 63.0692L54.2305 58.5602C54.0385 58.564 53.8583 58.5893 53.69 58.6362ZM65.5061 63.7846C65.5314 63.927 64.9014 64.1774 63.6161 64.5358C62.3462 64.8899 61.6915 64.9562 61.6522 64.7347L58.7671 48.4786C58.7475 48.3679 58.9706 48.2226 59.4365 48.0429C59.9024 47.8632 60.296 47.7285 60.6173 47.6389C61.9026 47.2806 62.5705 47.2438 62.621 47.5285L63.4634 52.2748C64.2725 51.767 64.8989 51.4512 65.3427 51.3275C66.5055 51.0032 67.4811 51.0716 68.2695 51.5325C69.0551 51.9776 69.6023 53.0703 69.9111 54.8107L71.2168 62.1674C71.2421 62.3098 70.658 62.5474 69.4645 62.8802C68.1096 63.2082 67.4223 63.3168 67.4027 63.206L66.1644 56.2289C66.0268 55.4537 65.7132 55.1344 65.2236 55.2709C64.887 55.3647 64.5263 55.6397 64.1415 56.0956L65.5061 63.7846ZM78.4543 60.1992C78.488 60.389 77.8623 60.6632 76.577 61.0215C75.0357 61.3849 74.2524 61.4954 74.2271 61.353L72.7361 52.952L71.5656 53.2784C71.2596 53.3637 71.0097 52.8605 70.816 51.7689C70.7654 51.4841 70.7266 51.1297 70.6995 50.7055C70.6877 50.2771 70.7659 50.0394 70.9342 49.9925L72.1507 49.6533L71.78 47.5649C71.7239 47.2485 72.3384 46.9111 73.6237 46.5528C74.9243 46.1901 75.597 46.1354 75.6419 46.3885L75.9115 47.9073L76.0524 48.5654L78.0032 48.0214C78.2634 47.9489 78.4917 48.4664 78.6882 49.5739C78.8848 50.6813 78.853 51.2713 78.5929 51.3439L76.9634 51.7982L78.4543 60.1992ZM90.3752 52.2926L81.3094 54.8204C81.034 54.8972 80.7944 54.7233 80.5906 54.2986C80.4872 54.0783 80.4159 53.8575 80.3766 53.636C80.3373 53.4145 80.3272 53.1765 80.3463 52.9222C80.3873 52.4292 80.5455 52.1444 80.8209 52.0676L89.8866 49.5397C90.162 49.463 90.4017 49.6369 90.6055 50.0616C90.7088 50.2818 90.7801 50.5027 90.8195 50.7242C90.8588 50.9457 90.8689 51.1836 90.8498 51.438C90.8088 51.9309 90.6506 52.2158 90.3752 52.2926ZM96.4285 49.1602C96.7037 50.7107 97.4074 51.328 98.5397 51.0123C99.2741 50.8075 99.8595 50.4866 100.296 50.0495C100.525 49.9855 100.782 50.3456 101.066 51.1299C101.362 51.8941 101.537 52.4265 101.59 52.7271C101.64 53.0119 101.636 53.2124 101.576 53.3287C100.858 54.0769 99.795 54.6473 98.3873 55.0398C96.9797 55.4323 95.6831 55.2293 94.4976 54.4307C93.3246 53.6121 92.5724 52.2694 92.2411 50.4025C91.9069 48.5198 92.1194 46.8666 92.8783 45.4429C93.6526 44.0149 94.8431 43.0769 96.4497 42.629C98.0715 42.1767 99.2678 42.2666 100.038 42.8985C100.207 43.0342 100.322 43.276 100.384 43.6241C100.443 43.9563 100.455 44.3847 100.419 44.9093C100.324 45.9987 100.068 46.6843 99.6522 46.9662C99.5938 46.9991 99.5034 47.0326 99.381 47.0668C99.2739 47.0966 99.1194 47.0401 98.9173 46.8972C98.2111 46.4465 97.6744 46.2724 97.3072 46.3748C96.9552 46.4729 96.6829 46.7481 96.4902 47.2004C96.2975 47.6526 96.2769 48.3059 96.4285 49.1602ZM107.58 52.0283C107.605 52.1707 106.837 52.4595 105.277 52.8946C104.05 53.2201 103.427 53.3275 103.407 53.2167L100.539 37.0556C100.497 36.8182 101.218 36.4927 102.702 36.0788C104.011 35.7636 104.675 35.6614 104.695 35.7722L107.58 52.0283ZM113.865 50.3257C113.887 50.4523 113.194 50.7118 111.787 51.1043C110.394 51.4926 109.688 51.6313 109.669 51.5206L107.601 39.8684C107.581 39.7576 108.267 39.5081 109.66 39.1199C111.067 38.7274 111.78 38.5786 111.797 38.6735L113.865 50.3257ZM111.548 37.2734C111.568 37.3841 110.874 37.6358 109.466 38.0283C108.074 38.4165 107.369 38.5632 107.352 38.4682L106.746 35.0509C106.718 34.8927 107.4 34.6195 108.792 34.2312C110.2 33.8387 110.912 33.6899 110.929 33.7848L111.548 37.2734ZM118.685 42.9544C118.96 44.5049 119.664 45.1223 120.796 44.8065C121.531 44.6018 122.116 44.2808 122.552 43.8437C122.782 43.7797 123.038 44.1398 123.322 44.9241C123.618 45.6883 123.793 46.2208 123.846 46.5214C123.897 46.8061 123.892 47.0066 123.833 47.1229C123.114 47.8711 122.051 48.4415 120.644 48.834C119.236 49.2265 117.94 49.0235 116.754 48.225C115.581 47.4064 114.829 46.0636 114.498 44.1967C114.163 42.314 114.376 40.6608 115.135 39.2371C115.909 37.8091 117.1 36.8711 118.706 36.4232C120.328 35.9709 121.524 36.0608 122.295 36.6928C122.463 36.8284 122.579 37.0702 122.64 37.4183C122.699 37.7505 122.711 38.179 122.676 38.7035C122.58 39.7929 122.324 40.4785 121.909 40.7605C121.85 40.7933 121.76 40.8268 121.637 40.861C121.53 40.8908 121.376 40.8343 121.174 40.6914C120.468 40.2408 119.931 40.0666 119.564 40.169C119.212 40.2672 118.939 40.5423 118.747 40.9946C118.554 41.4468 118.533 42.1001 118.685 42.9544ZM122.778 30.7548C122.733 30.5017 123.407 30.181 124.8 29.7928C126.109 29.4776 126.777 29.3991 126.805 29.5573L128.422 38.6702L129.924 33.6938C129.989 33.4266 130.618 33.1267 131.812 32.7939C133.005 32.4611 133.784 32.3269 134.149 32.3912L132.058 38.2543L136.684 43.9629C136.726 44.0177 136.444 44.1462 135.837 44.3485C135.249 44.5623 134.756 44.7247 134.358 44.8356C132.889 45.2452 132.089 45.3937 131.956 45.2812L128.749 40.6464L129.68 45.891C129.716 46.0967 129.061 46.3873 127.715 46.7627C126.384 47.1339 125.701 47.2245 125.668 47.0347L122.778 30.7548ZM147.465 40.9569C147.499 41.1467 146.873 41.4208 145.588 41.7792C144.046 42.1426 143.263 42.2531 143.238 42.1107L141.747 33.7097L140.576 34.0361C140.27 34.1214 140.02 33.6182 139.827 32.5266C139.776 32.2418 139.737 31.8873 139.71 31.4632C139.698 31.0348 139.777 30.7971 139.945 30.7502L141.161 30.411L140.791 28.3226C140.735 28.0062 141.349 27.6688 142.634 27.3104C143.935 26.9478 144.608 26.8931 144.653 27.1462L144.922 28.665L145.063 29.3231L147.014 28.7791C147.274 28.7066 147.502 29.2241 147.699 30.3316C147.896 31.439 147.864 32.029 147.604 32.1016L145.974 32.5559L147.465 40.9569ZM151.4 38.5397C150.257 37.7126 149.515 36.334 149.172 34.4038C148.83 32.4736 149.036 30.8305 149.791 29.4743C150.561 28.1139 151.757 27.2075 153.379 26.7553C155.001 26.3031 156.383 26.4905 157.526 27.3177C158.668 28.1448 159.41 29.5235 159.753 31.4536C160.096 33.3838 159.889 35.0269 159.134 36.3831C158.38 37.7393 157.191 38.6435 155.569 39.0957C153.947 39.5479 152.558 39.3626 151.4 38.5397ZM154.082 30.7185C153.226 30.9574 152.926 31.8046 153.185 33.2601C153.443 34.7157 154.001 35.324 154.857 35.0851C155.73 34.8419 156.036 33.9925 155.778 32.537C155.52 31.0815 154.955 30.4753 154.082 30.7185ZM166.104 26.7689L164.979 27.0824C164.749 27.1464 164.542 26.6563 164.357 25.6122C164.169 24.5521 164.189 23.9901 164.419 23.9261L165.543 23.6126L165.451 23.0905C165.153 21.4134 165.285 20.1647 165.846 19.3441C166.419 18.5034 167.318 17.9125 168.542 17.5712C169.766 17.2299 170.885 17.1585 171.9 17.357C172.031 17.3704 172.123 17.5273 172.176 17.8279C172.227 18.1127 172.18 18.6157 172.035 19.3369C171.89 20.0581 171.734 20.4917 171.567 20.6379C170.988 20.4507 170.423 20.4339 169.872 20.5875C169.275 20.7539 169.05 21.2484 169.196 22.0711L169.284 22.5695L171.189 22.0383C171.465 21.9615 171.692 22.4294 171.872 23.4419C172.069 24.5494 171.991 25.1522 171.639 25.2503L170.17 25.6599L171.661 34.0608C171.695 34.2507 171.031 34.5355 169.669 34.9152C168.323 35.2906 167.632 35.3834 167.599 35.1936L166.104 26.7689ZM179.536 32.0146C179.558 32.1412 178.866 32.4007 177.458 32.7932C176.066 33.1814 175.36 33.3202 175.34 33.2094L173.272 21.5573C173.252 21.4465 173.939 21.197 175.331 20.8088C176.739 20.4163 177.451 20.2675 177.468 20.3624L179.536 32.0146ZM177.219 18.9623C177.239 19.073 176.545 19.3246 175.137 19.7171C173.745 20.1054 173.04 20.252 173.023 20.1571L172.417 16.7398C172.389 16.5815 173.071 16.3083 174.463 15.9201C175.871 15.5276 176.583 15.3788 176.6 15.4737L177.219 18.9623ZM185.78 30.2237C185.805 30.3661 185.038 30.6548 183.477 31.09C182.25 31.4155 181.627 31.5229 181.607 31.4121L178.739 15.2509C178.697 15.0136 179.418 14.688 180.902 14.2742C182.211 13.959 182.875 13.8568 182.895 13.9676L185.78 30.2237ZM192.033 28.48C192.059 28.6224 191.291 28.9112 189.73 29.3464C188.503 29.6719 187.88 29.7792 187.861 29.6685L184.992 13.5073C184.95 13.27 185.671 12.9444 187.155 12.5306C188.464 12.2154 189.129 12.1132 189.148 12.2239L192.033 28.48ZM72.1439 77.7989C72.1186 77.6565 72.5267 77.468 73.3683 77.2334C75.2656 76.7043 76.2102 76.5074 76.202 76.6425L75.9998 88.8032C75.9988 89.0691 75.172 89.4324 73.5195 89.8932C71.8671 90.354 70.9954 90.4642 70.9046 90.2238L69.0201 85.1704L68.793 90.8126C68.7893 91.0627 67.9305 91.4267 66.2168 91.9045C64.5184 92.3781 63.621 92.4789 63.5246 92.2069L59.4307 81.2192C59.368 81.1371 60.0175 80.9062 61.3793 80.5264C62.7286 80.1668 63.4074 80.0108 63.4158 80.0582L65.8952 87.7851L66.3934 79.3276C66.4072 79.2241 66.9037 79.0359 67.8829 78.7628C68.8622 78.4898 69.3755 78.3965 69.423 78.4829L72.6949 85.7895L72.1439 77.7989ZM83.7501 86.7417C83.7726 86.8683 83.08 87.1278 81.6723 87.5203C80.2799 87.9086 79.5739 88.0473 79.5542 87.9366L77.4862 76.2844C77.4666 76.1736 78.1529 75.9242 79.5453 75.5359C80.953 75.1434 81.6653 74.9946 81.6821 75.0896L83.7501 86.7417ZM81.4336 73.6894C81.4533 73.8001 80.7593 74.0518 79.3516 74.4443C77.9592 74.8325 77.2546 74.9792 77.2377 74.8842L76.6312 71.4669C76.6032 71.3087 77.2853 71.0355 78.6777 70.6472C80.0854 70.2547 80.7976 70.1059 80.8145 70.2009L81.4336 73.6894ZM91.1046 84.6911C91.1383 84.8809 90.5125 85.1551 89.2272 85.5134C87.6859 85.8768 86.9026 85.9873 86.8773 85.8449L85.3863 77.4439L84.2158 77.7703C83.9098 77.8556 83.6599 77.3524 83.4662 76.2608C83.4156 75.976 83.3768 75.6216 83.3497 75.1974C83.3379 74.769 83.4162 74.5313 83.5845 74.4844L84.8009 74.1452L84.4302 72.0568C84.3741 71.7404 84.9886 71.403 86.2739 71.0447C87.5745 70.682 88.2472 70.6273 88.2922 70.8804L88.5617 72.3992L88.7026 73.0573L90.6535 72.5133C90.9136 72.4408 91.1419 72.9583 91.3385 74.0658C91.535 75.1732 91.5032 75.7632 91.2431 75.8358L89.6136 76.2901L91.1046 84.6911ZM98.1043 82.7145C98.1295 82.8568 97.4995 83.1072 96.2143 83.4656C94.9443 83.8197 94.2897 83.886 94.2503 83.6645L91.3652 67.4084C91.3456 67.2977 91.5687 67.1524 92.0346 66.9727C92.5005 66.793 92.8941 66.6583 93.2154 66.5687C94.5007 66.2104 95.1686 66.1736 95.2192 66.4584L96.0615 71.2047C96.8706 70.6968 97.4971 70.381 97.9408 70.2573C99.1037 69.933 100.079 70.0014 100.868 70.4623C101.653 70.9074 102.2 72.0002 102.509 73.7405L103.815 81.0972C103.84 81.2396 103.256 81.4772 102.063 81.81C100.708 82.138 100.02 82.2466 100.001 82.1358L98.7625 75.1588C98.6249 74.3835 98.3113 74.0642 97.8217 74.2007C97.4851 74.2946 97.1244 74.5695 96.7396 75.0254L98.1043 82.7145ZM119.952 64.4687C119.926 64.3263 120.334 64.1378 121.176 63.9031C123.073 63.3741 124.018 63.1771 124.01 63.3122L123.807 75.4729C123.807 75.7388 122.98 76.1022 121.327 76.5629C119.675 77.0237 118.803 77.1339 118.712 76.8936L116.828 71.8401L116.601 77.4823C116.597 77.7325 115.738 78.0964 114.025 78.5743C112.326 79.0478 111.429 79.1486 111.332 78.8766L107.238 67.8889C107.176 67.8068 107.825 67.5759 109.187 67.1962C110.536 66.8366 111.215 66.6805 111.224 66.728L113.703 74.4548L114.201 65.9973C114.215 65.8939 114.711 65.7056 115.691 65.4326C116.67 65.1595 117.183 65.0662 117.231 65.1526L120.503 72.4593L119.952 64.4687ZM131.186 73.4901C131.212 73.6325 130.582 73.8829 129.296 74.2413C128.026 74.5954 127.372 74.6617 127.332 74.4402L124.447 58.1841C124.428 58.0734 124.651 57.9281 125.117 57.7484C125.583 57.5687 125.976 57.434 126.298 57.3444C127.583 56.9861 128.251 56.9493 128.301 57.234L129.144 61.9803C129.953 61.4725 130.579 61.1567 131.023 61.033C132.186 60.7087 133.161 60.7771 133.95 61.238C134.735 61.6831 135.283 62.7758 135.591 64.5162L136.897 71.8729C136.922 72.0153 136.338 72.2529 135.145 72.5857C133.79 72.9137 133.103 73.0223 133.083 72.9115L131.845 65.9344C131.707 65.1592 131.393 64.8399 130.904 64.9764C130.567 65.0702 130.207 65.3452 129.822 65.8011L131.186 73.4901ZM143.056 70.2055C143.078 70.332 142.386 70.5916 140.978 70.9841C139.586 71.3723 138.88 71.5111 138.86 71.4003L136.792 59.7481C136.772 59.6374 137.459 59.3879 138.851 58.9997C140.259 58.6072 140.971 58.4584 140.988 58.5533L143.056 70.2055ZM140.739 57.1531C140.759 57.2639 140.065 57.5155 138.657 57.908C137.265 58.2962 136.56 58.4429 136.544 58.348L135.937 54.9306C135.909 54.7724 136.591 54.4992 137.983 54.111C139.391 53.7185 140.103 53.5697 140.12 53.6646L140.739 57.1531ZM150.41 68.1548C150.444 68.3447 149.818 68.6188 148.533 68.9772C146.992 69.3405 146.208 69.451 146.183 69.3086L144.692 60.9076L143.522 61.234C143.216 61.3193 142.966 60.8162 142.772 59.7245C142.721 59.4398 142.683 59.0853 142.655 58.6611C142.644 58.2327 142.722 57.9951 142.89 57.9481L144.107 57.609L143.736 55.5206C143.68 55.2042 144.294 54.8668 145.58 54.5084C146.88 54.1458 147.553 54.091 147.598 54.3441L147.868 55.863L148.008 56.521L149.959 55.9771C150.219 55.9046 150.448 56.422 150.644 57.5295C150.841 58.637 150.809 59.227 150.549 59.2995L148.919 59.7539L150.41 68.1548ZM162.169 64.3533C161.308 65.2074 160.121 65.8457 158.606 66.2681C157.091 66.6904 155.72 66.5167 154.491 65.7468C153.26 64.961 152.477 63.6268 152.143 61.7441C151.806 59.8456 152.032 58.1802 152.822 56.748C153.627 55.3115 154.794 54.3799 156.324 53.9532C157.854 53.5266 159.104 53.6015 160.074 54.178C161.058 54.7503 161.653 55.6138 161.858 56.7688C162.313 59.3318 161.118 61.01 158.272 61.8036L156.688 62.2452C156.772 62.7198 156.954 63.0179 157.232 63.1395C157.523 63.241 157.913 63.2235 158.403 63.087C159.474 62.7883 160.447 62.2515 161.321 61.4764C161.333 61.4563 161.422 61.5479 161.586 61.7511C162.074 62.329 162.36 62.8552 162.445 63.3299C162.526 63.7887 162.434 64.1298 162.169 64.3533ZM158.082 58.2948C157.964 57.6303 157.592 57.3855 156.965 57.5604C156.674 57.6415 156.438 57.8068 156.258 58.0564C156.09 58.2859 156.037 58.5747 156.098 58.9227L156.229 59.6584L157.468 59.3128C157.973 59.1721 158.178 58.8327 158.082 58.2948ZM167.671 58.2612C167.688 58.3561 167.145 58.5572 166.044 58.8644C164.957 59.1673 164.407 59.2792 164.393 59.2001L161.858 47.6284C161.835 47.5019 162.52 47.2445 163.913 46.8562C165.32 46.4637 166.034 46.3228 166.054 46.4336L167.671 58.2612ZM164.137 60.741C164.117 60.6303 164.811 60.3787 166.219 59.9862C167.642 59.5894 168.362 59.4385 168.379 59.5334L168.985 62.9507C169.013 63.1089 168.316 63.3864 166.893 63.7832C165.485 64.1757 164.773 64.3245 164.756 64.2296L164.137 60.741Z" fill="#4C4C4C"/>
</svg>
