<svg width="282" height="286" viewBox="0 0 282 286" fill="none" xmlns="http://www.w3.org/2000/svg">
<path d="M78.5706 79.4248C78.7814 79.728 79.1705 80.1692 79.7379 80.7484C80.3208 81.3317 80.937 81.7096 81.5865 81.8821C82.2514 82.0586 82.6753 81.8992 82.8579 81.4038C82.941 81.1787 82.9201 80.9589 82.7955 80.7445C82.6763 80.515 82.4109 80.222 81.999 79.8655C81.5872 79.5089 81.2797 79.2377 81.0766 79.0519C80.879 78.8511 80.624 78.5526 80.3117 78.1565C80.0203 77.7495 79.8245 77.3597 79.7243 76.9869C79.4212 75.967 79.5133 74.7965 80.0004 73.4755C80.4875 72.1544 81.3998 71.177 82.7371 70.5432C84.0954 69.8985 85.5941 69.7938 87.2333 70.229C88.3467 70.5247 89.3308 70.9178 90.1855 71.4085C91.0458 71.8842 91.4222 72.3138 91.3148 72.6973C91.2981 72.7423 91.2815 72.7873 91.2649 72.8324C91.0712 73.3578 90.6547 73.9807 90.0156 74.701C89.382 75.4063 88.979 75.7855 88.8066 75.8386C87.9996 75.0804 87.2018 74.5966 86.4131 74.3871C85.6399 74.1818 85.1536 74.3494 84.9544 74.8898C84.8326 75.2201 85.0107 75.5888 85.4888 75.9959C85.5904 76.0888 85.7377 76.2186 85.931 76.3853C86.1242 76.552 86.34 76.7494 86.5785 76.9775C86.8379 77.1947 87.0962 77.4611 87.3534 77.7766C87.6316 78.0812 87.9053 78.4671 88.1745 78.9341C88.7173 79.9023 88.7618 81.0019 88.3079 82.2329C87.7155 83.8392 86.775 85.0316 85.4862 85.8101C84.1974 86.5887 82.5964 86.7404 80.6832 86.2654C79.7554 86.019 78.9403 85.7201 78.2379 85.3688C77.551 85.0216 77.0094 84.5564 76.6133 83.9732C76.2171 83.39 76.1325 82.7907 76.3594 82.1752C76.5864 81.5597 76.9266 80.9826 77.38 80.4437C77.8389 79.8898 78.2358 79.5502 78.5706 79.4248ZM97.1408 89.7207C95.9617 90.0175 94.6067 89.9626 93.0758 89.5561C91.5448 89.1495 90.439 88.3038 89.7584 87.0187C89.0832 85.7187 89.075 84.1755 89.7338 82.3891C90.398 80.5876 91.4348 79.2724 92.8441 78.4435C94.2688 77.6186 95.7544 77.4115 97.3008 77.8221C98.8472 78.2328 99.8968 78.9318 100.45 79.9191C101.018 80.9106 101.1 81.9542 100.696 83.0501C99.7989 85.482 97.9124 86.3161 95.036 85.5523L93.4355 85.1273C93.2694 85.5777 93.2769 85.9258 93.4579 86.1716C93.6599 86.4066 94.0083 86.5897 94.5032 86.7211C95.5857 87.0086 96.7026 87.0415 97.854 86.8198C97.875 86.8089 97.9058 86.9324 97.9465 87.1905C98.0796 87.9345 98.0631 88.5317 97.897 88.9821C97.7365 89.4174 97.4844 89.6636 97.1408 89.7207ZM96.641 82.4431C96.8734 81.8126 96.6727 81.4132 96.0387 81.2449C95.7448 81.1668 95.4565 81.1891 95.1735 81.3118C94.9116 81.4236 94.7198 81.6446 94.598 81.9748L94.3406 82.6729L95.5932 83.0055C96.1035 83.141 96.4527 82.9535 96.641 82.4431ZM103.718 91.9368C103.668 92.0719 102.854 91.9301 101.277 91.5112C100.045 91.1677 99.4488 90.9434 99.4875 90.8383L105.142 75.5037C105.225 75.2785 106.017 75.3651 107.517 75.7634C108.815 76.1574 109.444 76.407 109.405 76.5121L103.718 91.9368ZM114.742 94.3945C113.563 94.6912 112.208 94.6363 110.677 94.2298C109.146 93.8233 108.04 92.9775 107.359 91.6925C106.684 90.3924 106.676 88.8492 107.335 87.0628C107.999 85.2614 109.036 83.9462 110.445 83.1172C111.87 82.2923 113.355 82.0852 114.902 82.4959C116.448 82.9065 117.498 83.6055 118.05 84.5928C118.619 85.5843 118.701 86.628 118.297 87.7238C117.4 90.1557 115.513 90.9898 112.637 90.2261L111.036 89.8011C110.87 90.2514 110.878 90.5995 111.059 90.8454C111.261 91.0803 111.609 91.2635 112.104 91.3949C113.187 91.6823 114.304 91.7152 115.455 91.4935C115.476 91.4826 115.507 91.6062 115.547 91.8642C115.681 92.6082 115.664 93.2055 115.498 93.6558C115.337 94.0912 115.085 94.3374 114.742 94.3945ZM114.242 87.1169C114.474 86.4864 114.274 86.0869 113.64 85.9186C113.346 85.8406 113.057 85.8629 112.775 85.9855C112.513 86.0973 112.321 86.3183 112.199 86.6486L111.942 87.3466L113.194 87.6792C113.704 87.8147 114.054 87.6273 114.242 87.1169ZM122.894 91.0954C122.351 92.5666 122.652 93.4541 123.797 93.758C124.539 93.9551 125.21 93.9767 125.81 93.8229C126.042 93.8845 126.084 94.3241 125.935 95.1416C125.807 95.9483 125.691 96.4943 125.586 96.7795C125.486 97.0497 125.381 97.2196 125.27 97.2891C124.268 97.5669 123.056 97.5169 121.633 97.1391C120.21 96.7613 119.185 95.9285 118.556 94.6408C117.948 93.3422 117.971 91.8072 118.624 90.0358C119.283 88.2494 120.301 86.9376 121.68 86.1004C123.073 85.2673 124.582 85.0664 126.206 85.4975C127.845 85.9328 128.841 86.6174 129.192 87.5514C129.271 87.7535 129.249 88.0197 129.127 88.3499C129.011 88.6652 128.805 89.0391 128.51 89.4716C127.877 90.3584 127.309 90.8174 126.805 90.8484C126.738 90.847 126.642 90.8299 126.518 90.797C126.41 90.7683 126.304 90.6412 126.2 90.4159C125.813 89.6703 125.434 89.2482 125.063 89.1497C124.707 89.0552 124.332 89.1533 123.936 89.4437C123.54 89.7342 123.193 90.2848 122.894 91.0954ZM132.246 99.5618C132.18 99.742 131.497 99.6596 130.198 99.3146C128.674 98.8439 127.937 98.5411 127.987 98.4059L130.926 90.4346L129.743 90.1205C129.434 90.0384 129.47 89.4794 129.852 88.4436C129.952 88.1734 130.097 87.8493 130.287 87.4713C130.493 87.0974 130.681 86.933 130.851 86.9782L132.08 87.3047L132.811 85.3231C132.922 85.0228 133.627 85.0452 134.926 85.3901C136.24 85.7392 136.853 86.0338 136.764 86.274L136.233 87.7151L136.024 88.3518L137.995 88.8753C138.258 88.9451 138.196 89.5054 137.808 90.5563C137.421 91.6071 137.096 92.0976 136.833 92.0278L135.186 91.5905L132.246 99.5618ZM144.249 93.9229C144.093 93.0573 144.1 92.3919 144.272 91.9265C144.449 91.4461 144.694 91.1733 145.007 91.108C146.027 90.9667 147.302 91.0994 148.833 91.5059C150.379 91.9165 151.34 92.5588 151.713 93.4327C152.093 94.2916 152.031 95.4041 151.527 96.7702L150.215 100.328L151.004 100.537C151.266 100.607 151.412 100.811 151.441 101.148C151.485 101.489 151.41 101.923 151.216 102.448C151.022 102.973 150.692 103.454 150.225 103.891C149.774 104.331 149.317 104.49 148.853 104.367C148.018 104.145 147.425 103.749 147.076 103.178C146.91 102.936 146.813 102.671 146.783 102.383C145.751 103.065 144.484 103.207 142.984 102.809C141.855 102.509 141.048 101.866 140.563 100.88C140.078 99.8942 140.031 98.8683 140.424 97.8025C141.327 95.3555 143.286 94.5324 146.301 95.3331L147.577 95.6719L147.66 95.4467C147.804 95.0564 147.826 94.7902 147.725 94.6482C147.646 94.4953 147.366 94.3551 146.887 94.2278C146.299 94.0718 145.42 93.9702 144.249 93.9229ZM144.577 98.559C144.455 98.8892 144.454 99.1691 144.573 99.3985C144.698 99.6129 144.899 99.757 145.177 99.831C145.471 99.909 145.776 99.8662 146.091 99.7026L146.73 97.9687L146.08 97.7963C145.338 97.5992 144.837 97.8534 144.577 98.559ZM156.654 106.043C156.616 106.148 156.04 106.053 154.926 105.757C153.396 105.302 152.654 105.014 152.698 104.894L155.388 97.5978L154.785 97.4376C154.383 97.3309 154.242 96.9308 154.362 96.2374C154.403 96.034 154.459 95.8348 154.531 95.6396C154.703 95.1743 154.967 94.7335 155.324 94.3174C155.846 93.7308 156.401 93.5155 156.989 93.6716C157.576 93.8276 158.052 94.1023 158.417 94.4958C158.781 94.8892 158.991 95.2415 159.046 95.5528C160.319 95.0008 161.628 94.9035 162.973 95.2607C164.319 95.618 165.163 96.2295 165.506 97.0952C165.849 97.9609 165.724 99.1969 165.132 100.803L162.641 107.558C162.574 107.739 161.876 107.652 160.546 107.299C159.232 106.95 158.608 106.685 158.674 106.505L161.074 99.9976C161.351 99.247 161.218 98.7998 160.677 98.6561C160.523 98.615 160.281 98.6251 159.953 98.6863C159.63 98.7325 159.419 98.7753 159.32 98.8148L156.654 106.043ZM167.831 96.9214C167.892 96.7563 168.626 96.8606 170.033 97.2342C171.456 97.612 172.163 97.8821 172.154 98.0446L171.864 103.802L175.441 98.868C175.547 98.7644 176.049 98.8316 176.946 99.0698C179.002 99.6159 179.948 99.9742 179.784 100.145L168.777 113.762C168.729 113.848 168.287 113.78 167.452 113.558C166.632 113.34 165.878 113.107 165.189 112.858C164.494 112.624 164.176 112.474 164.234 112.407L167.996 108.214L167.831 96.9214ZM187.227 108.178C186.684 109.649 186.985 110.537 188.13 110.841C188.872 111.038 189.543 111.06 190.143 110.906C190.375 110.967 190.417 111.407 190.268 112.225C190.14 113.031 190.024 113.577 189.919 113.862C189.819 114.133 189.714 114.302 189.603 114.372C188.601 114.65 187.389 114.6 185.966 114.222C184.543 113.844 183.518 113.011 182.889 111.724C182.281 110.425 182.304 108.89 182.957 107.119C183.616 105.332 184.634 104.02 186.013 103.183C187.406 102.35 188.915 102.149 190.539 102.58C192.178 103.016 193.174 103.7 193.525 104.634C193.604 104.836 193.582 105.103 193.46 105.433C193.344 105.748 193.138 106.122 192.843 106.554C192.21 107.441 191.642 107.9 191.138 107.931C191.071 107.93 190.975 107.913 190.851 107.88C190.743 107.851 190.637 107.724 190.533 107.499C190.146 106.753 189.767 106.331 189.396 106.233C189.04 106.138 188.665 106.236 188.269 106.527C187.873 106.817 187.526 107.368 187.227 108.178ZM192.682 114.299C192.105 113.009 192.154 111.448 192.83 109.617C193.505 107.785 194.513 106.479 195.854 105.698C197.21 104.92 198.708 104.75 200.347 105.185C201.986 105.62 203.094 106.483 203.671 107.773C204.248 109.064 204.198 110.625 203.523 112.456C202.848 114.288 201.84 115.594 200.499 116.375C199.158 117.156 197.668 117.329 196.029 116.894C194.39 116.459 193.274 115.594 192.682 114.299ZM198.96 108.945C198.094 108.715 197.407 109.291 196.897 110.672C196.388 112.053 196.566 112.859 197.432 113.089C198.314 113.323 199.009 112.749 199.519 111.368C200.028 109.987 199.842 109.179 198.96 108.945ZM207.375 119.462C207.325 119.597 206.512 119.455 204.935 119.036C203.703 118.693 203.107 118.469 203.145 118.363L208.8 103.029C208.883 102.804 209.674 102.89 211.174 103.288C212.472 103.683 213.102 103.932 213.063 104.037L207.375 119.462ZM210.895 119.136C210.318 117.845 210.367 116.284 211.042 114.453C211.718 112.621 212.726 111.315 214.066 110.534C215.423 109.757 216.92 109.586 218.56 110.021C220.199 110.456 221.307 111.319 221.884 112.609C222.46 113.9 222.411 115.461 221.736 117.292C221.06 119.124 220.052 120.43 218.712 121.211C217.371 121.993 215.881 122.166 214.242 121.73C212.603 121.295 211.487 120.43 210.895 119.136ZM217.173 113.781C216.307 113.551 215.619 114.127 215.11 115.508C214.601 116.889 214.779 117.695 215.645 117.925C216.526 118.159 217.222 117.585 217.731 116.204C218.24 114.823 218.054 114.015 217.173 113.781ZM226.388 124.684C226.349 124.789 225.626 124.654 224.219 124.281C222.823 123.877 222.141 123.63 222.175 123.54L224.931 116.064L224.305 115.898C224.058 115.832 223.909 115.636 223.86 115.31C223.831 114.973 223.897 114.586 224.058 114.151C224.656 112.53 225.449 111.85 226.439 112.113C227.135 112.298 227.637 112.662 227.946 113.206C228.261 113.734 228.321 114.261 228.127 114.787C228.679 114.257 229.292 113.884 229.966 113.668C230.661 113.44 231.295 113.403 231.867 113.555C232.764 113.793 233.222 114.162 233.242 114.661C233.244 114.794 233.201 114.98 233.112 115.22C233.029 115.445 232.799 115.838 232.423 116.397C232.063 116.961 231.755 117.357 231.501 117.586C231.247 117.815 231.104 117.926 231.073 117.918C231.042 117.909 230.915 117.818 230.691 117.643C230.487 117.457 230.285 117.337 230.084 117.284C229.497 117.128 229.037 117.5 228.705 118.401L226.388 124.684ZM239.344 119.174C239.188 118.309 239.196 117.643 239.367 117.178C239.544 116.698 239.789 116.425 240.102 116.359C241.122 116.218 242.397 116.351 243.928 116.757C245.475 117.168 246.435 117.81 246.809 118.684C247.188 119.543 247.126 120.656 246.622 122.022L245.31 125.579L246.099 125.789C246.362 125.859 246.507 126.062 246.536 126.399C246.58 126.741 246.505 127.174 246.311 127.699C246.117 128.225 245.787 128.706 245.321 129.142C244.869 129.583 244.412 129.742 243.948 129.618C243.113 129.397 242.521 129 242.171 128.43C242.005 128.188 241.908 127.923 241.878 127.635C240.846 128.317 239.579 128.458 238.079 128.06C236.951 127.76 236.143 127.117 235.658 126.132C235.173 125.146 235.127 124.12 235.52 123.054C236.422 120.607 238.381 119.784 241.396 120.585L242.672 120.923L242.755 120.698C242.899 120.308 242.921 120.042 242.82 119.9C242.741 119.747 242.462 119.607 241.982 119.479C241.394 119.323 240.515 119.222 239.344 119.174ZM239.672 123.81C239.55 124.141 239.549 124.42 239.668 124.65C239.793 124.864 239.994 125.008 240.273 125.082C240.566 125.16 240.871 125.118 241.186 124.954L241.825 123.22L241.176 123.048C240.433 122.851 239.932 123.105 239.672 123.81ZM251.75 131.294C251.711 131.4 251.135 131.304 250.021 131.009C248.492 130.553 247.749 130.265 247.793 130.145L250.483 122.849L249.88 122.689C249.478 122.582 249.337 122.182 249.457 121.489C249.498 121.285 249.554 121.086 249.626 120.891C249.798 120.426 250.062 119.985 250.42 119.569C250.942 118.982 251.496 118.767 252.084 118.923C252.672 119.079 253.148 119.354 253.512 119.747C253.876 120.141 254.086 120.493 254.141 120.804C255.414 120.252 256.723 120.155 258.069 120.512C259.414 120.869 260.258 121.481 260.601 122.347C260.944 123.212 260.819 124.448 260.227 126.055L257.736 132.81C257.669 132.99 256.971 132.904 255.641 132.55C254.327 132.201 253.703 131.937 253.769 131.757L256.169 125.249C256.446 124.498 256.314 124.051 255.772 123.907C255.618 123.866 255.376 123.876 255.048 123.938C254.725 123.984 254.514 124.027 254.415 124.066L251.75 131.294ZM271.259 119.466C271.342 119.241 271.994 119.29 273.216 119.615C273.634 119.725 274.102 119.883 274.621 120.086C275.161 120.279 275.414 120.421 275.381 120.511L271.005 132.378L271.817 132.593C272.204 132.696 272.334 133.102 272.209 133.81C272.168 134.013 272.084 134.288 271.957 134.633C271.835 134.963 271.577 135.34 271.183 135.763C270.631 136.341 270.014 136.54 269.333 136.359C268.823 136.224 268.403 136.005 268.073 135.703C267.758 135.405 267.57 135.133 267.508 134.886L267.408 134.537C266.264 135.107 265.05 135.222 263.766 134.881C262.483 134.54 261.576 133.731 261.045 132.453C260.515 131.174 260.59 129.612 261.271 127.766C261.958 125.904 262.966 124.598 264.295 123.847C265.63 123.08 267.017 122.888 268.455 123.27C268.873 123.381 269.282 123.539 269.681 123.744L271.259 119.466ZM267.637 127.009C266.771 126.779 266.059 127.422 265.499 128.938C265.217 129.704 265.136 130.292 265.256 130.703C265.382 131.099 265.592 131.336 265.885 131.414C266.195 131.496 266.535 131.446 266.908 131.265L268.32 127.437C268.112 127.217 267.885 127.074 267.637 127.009ZM88.105 103.589C88.1659 103.424 88.8613 103.518 90.1912 103.871C91.5211 104.224 92.1557 104.483 92.0948 104.648L89.6702 111.224C89.3934 111.974 89.5024 112.415 89.9973 112.547C90.3684 112.645 90.8441 112.598 91.4242 112.406L94.0896 105.178C94.145 105.028 94.8299 105.127 96.1443 105.476C97.4588 105.825 98.0883 106.075 98.033 106.225L95.3095 113.611L95.9126 113.771C96.4383 113.911 96.5213 114.468 96.1615 115.444C95.9788 115.94 95.6851 116.414 95.2804 116.867C94.7276 117.445 94.1883 117.665 93.6625 117.525C92.6264 117.25 92.0132 116.634 91.8228 115.677L91.7913 115.693C90.549 116.253 89.3867 116.39 88.3042 116.102C86.8042 115.704 85.8313 115.05 85.3857 114.14C84.9456 113.216 85.0355 111.913 85.6555 110.232L88.105 103.589ZM98.7183 114.17C99.6996 115.238 100.554 115.869 101.281 116.062C101.744 116.185 102.035 116.089 102.151 115.774C102.234 115.549 101.94 115.149 101.268 114.575C99.6177 113.296 99.1134 111.786 99.7556 110.045C100.165 108.934 100.896 108.197 101.946 107.833C102.997 107.469 104.103 107.441 105.263 107.749C106.438 108.061 107.383 108.444 108.099 108.898C108.83 109.356 109.123 109.78 108.979 110.17C108.858 110.501 108.527 110.891 107.988 111.341C107.464 111.795 107.131 112.028 106.991 112.04C106.459 111.504 105.806 111.132 105.033 110.927C104.616 110.816 104.354 110.903 104.249 111.189C104.183 111.369 104.202 111.547 104.307 111.723C104.432 111.888 104.676 112.126 105.037 112.436C105.403 112.731 105.698 112.991 105.921 113.215C106.16 113.443 106.407 113.739 106.663 114.104C107.195 114.872 107.292 115.713 106.954 116.629C106.512 117.83 105.742 118.697 104.646 119.23C103.555 119.748 102.182 119.787 100.527 119.348C99.4293 119.056 98.4983 118.611 97.7343 118.013C96.9702 117.414 96.7044 116.8 96.9369 116.169C97.0919 115.749 97.3557 115.333 97.7284 114.921C98.1165 114.513 98.4464 114.263 98.7183 114.17ZM116.172 122.587C114.993 122.884 113.638 122.829 112.107 122.423C110.576 122.016 109.47 121.17 108.789 119.885C108.114 118.585 108.106 117.042 108.765 115.256C109.429 113.454 110.466 112.139 111.875 111.31C113.3 110.485 114.785 110.278 116.332 110.689C117.878 111.099 118.928 111.798 119.48 112.786C120.049 113.777 120.131 114.821 119.727 115.917C118.83 118.349 116.943 119.183 114.067 118.419L112.466 117.994C112.3 118.444 112.308 118.792 112.489 119.038C112.691 119.273 113.039 119.456 113.534 119.588C114.617 119.875 115.733 119.908 116.885 119.686C116.906 119.675 116.937 119.799 116.977 120.057C117.11 120.801 117.094 121.398 116.928 121.849C116.767 122.284 116.515 122.53 116.172 122.587ZM115.672 115.31C115.904 114.679 115.704 114.28 115.07 114.111C114.776 114.033 114.487 114.056 114.204 114.178C113.943 114.29 113.751 114.511 113.629 114.841L113.371 115.539L114.624 115.872C115.134 116.007 115.484 115.82 115.672 115.31ZM126.308 130.446C126.269 130.551 125.585 130.427 124.255 130.074C122.941 129.725 122.303 129.498 122.342 129.393L126.618 117.796L125.829 117.587C125.458 117.488 125.325 117.09 125.429 116.392C125.46 116.17 125.537 115.894 125.658 115.563C125.78 115.233 126.032 114.872 126.415 114.479C126.968 113.9 127.584 113.701 128.265 113.882C128.713 114.001 129.084 114.215 129.378 114.524C129.693 114.822 129.886 115.079 129.959 115.296C130.053 115.502 130.094 115.62 130.083 115.65C131.407 115.145 132.672 115.052 133.878 115.373C135.085 115.693 135.952 116.426 136.48 117.572C137.014 118.702 136.929 120.221 136.226 122.127C135.529 124.019 134.553 125.375 133.3 126.196C132.052 127.002 130.763 127.228 129.433 126.875C128.83 126.715 128.292 126.539 127.819 126.348L126.308 130.446ZM131.544 119.079C131.281 119.009 130.995 119.024 130.687 119.124L129.217 123.109C129.469 123.209 129.672 123.28 129.827 123.321C129.997 123.366 130.128 123.401 130.221 123.425C130.877 123.534 131.485 122.83 132.044 121.314C132.515 120.038 132.348 119.293 131.544 119.079ZM140.174 120.654C140.018 119.788 140.026 119.123 140.197 118.658C140.375 118.177 140.619 117.904 140.932 117.839C141.952 117.698 143.227 117.83 144.758 118.237C146.305 118.648 147.265 119.29 147.639 120.164C148.018 121.023 147.956 122.135 147.452 123.501L146.14 127.059L146.929 127.269C147.192 127.338 147.338 127.542 147.366 127.879C147.41 128.22 147.335 128.654 147.141 129.179C146.948 129.705 146.617 130.185 146.151 130.622C145.7 131.063 145.242 131.221 144.778 131.098C143.943 130.876 143.351 130.48 143.001 129.909C142.835 129.667 142.738 129.403 142.708 129.115C141.676 129.796 140.41 129.938 138.91 129.54C137.781 129.24 136.974 128.597 136.488 127.611C136.003 126.625 135.957 125.599 136.35 124.534C137.252 122.087 139.211 121.264 142.227 122.064L143.502 122.403L143.585 122.178C143.729 121.788 143.751 121.521 143.651 121.379C143.571 121.226 143.292 121.086 142.812 120.959C142.225 120.803 141.345 120.701 140.174 120.654ZM140.502 125.29C140.38 125.62 140.379 125.9 140.498 126.13C140.623 126.344 140.824 126.488 141.103 126.562C141.397 126.64 141.701 126.597 142.016 126.434L142.655 124.7L142.006 124.527C141.264 124.33 140.762 124.584 140.502 125.29ZM151.977 132.614C151.932 132.734 151.199 132.605 149.776 132.227C148.369 131.854 147.685 131.614 147.724 131.509L151.8 120.453C151.839 120.348 152.562 120.482 153.969 120.856C155.392 121.234 156.087 121.468 156.054 121.558L151.977 132.614ZM156.544 120.229C156.505 120.334 155.774 120.198 154.351 119.82C152.944 119.446 152.257 119.215 152.29 119.125L153.486 115.882C153.541 115.732 154.273 115.844 155.68 116.217C157.103 116.595 157.797 116.829 157.764 116.919L156.544 120.229ZM158.923 134.458C158.884 134.563 158.308 134.468 157.194 134.173C155.664 133.717 154.922 133.429 154.966 133.309L157.656 126.013L157.053 125.853C156.651 125.746 156.51 125.346 156.63 124.653C156.671 124.449 156.727 124.25 156.799 124.055C156.971 123.59 157.235 123.149 157.593 122.733C158.114 122.146 158.669 121.931 159.257 122.087C159.844 122.243 160.32 122.518 160.685 122.911C161.049 123.304 161.259 123.657 161.314 123.968C162.587 123.416 163.896 123.319 165.241 123.676C166.587 124.033 167.431 124.645 167.774 125.51C168.117 126.376 167.992 127.612 167.4 129.218L164.909 135.974C164.842 136.154 164.144 136.067 162.814 135.714C161.5 135.365 160.876 135.101 160.942 134.921L163.342 128.413C163.619 127.662 163.487 127.215 162.945 127.071C162.791 127.03 162.549 127.04 162.221 127.102C161.898 127.148 161.687 127.191 161.588 127.23L158.923 134.458ZM172.186 137.98C172.119 138.16 171.436 138.078 170.138 137.733C168.613 137.262 167.876 136.959 167.926 136.824L170.865 128.853L169.682 128.539C169.373 128.457 169.409 127.898 169.791 126.862C169.891 126.592 170.036 126.268 170.226 125.89C170.432 125.516 170.62 125.351 170.79 125.397L172.019 125.723L172.75 123.742C172.861 123.441 173.566 123.464 174.865 123.809C176.179 124.158 176.792 124.452 176.703 124.692L176.172 126.134L175.963 126.77L177.934 127.294C178.197 127.364 178.135 127.924 177.748 128.975C177.36 130.026 177.035 130.516 176.772 130.446L175.125 130.009L172.186 137.98ZM185.616 124.463C185.682 124.283 186.381 124.369 187.711 124.723C189.056 125.08 189.693 125.356 189.621 125.551L188.01 129.92C188.719 129.976 189.213 130.041 189.491 130.115C192.739 130.978 193.695 133.218 192.361 136.836C191.62 138.847 190.544 140.267 189.135 141.096C187.746 141.914 186.132 142.079 184.292 141.591C182.467 141.106 181.098 140.306 180.186 139.19L185.616 124.463ZM187.546 133.456C187.284 133.386 186.998 133.401 186.69 133.5L185.104 137.801C185.287 137.949 185.495 138.053 185.727 138.115C185.974 138.18 186.255 138.156 186.568 138.042C187.112 137.856 187.586 137.216 187.99 136.12C188.56 134.574 188.412 133.686 187.546 133.456ZM195.75 132.173C195.811 132.008 196.506 132.102 197.836 132.455C199.166 132.808 199.8 133.067 199.739 133.232L197.315 139.807C197.038 140.558 197.147 140.999 197.642 141.13C198.013 141.229 198.489 141.182 199.069 140.99L201.734 133.762C201.79 133.612 202.474 133.711 203.789 134.06C205.103 134.409 205.733 134.659 205.678 134.809L202.954 142.195L203.557 142.355C204.083 142.495 204.166 143.052 203.806 144.028C203.623 144.523 203.33 144.998 202.925 145.45C202.372 146.029 201.833 146.248 201.307 146.109C200.271 145.834 199.658 145.217 199.467 144.26L199.436 144.277C198.194 144.837 197.031 144.973 195.949 144.686C194.449 144.288 193.476 143.634 193.03 142.724C192.59 141.8 192.68 140.497 193.3 138.815L195.75 132.173ZM210.245 142.103C209.702 143.575 210.003 144.462 211.147 144.766C211.89 144.963 212.561 144.985 213.161 144.831C213.393 144.892 213.434 145.332 213.286 146.15C213.158 146.956 213.042 147.502 212.936 147.788C212.837 148.058 212.732 148.228 212.621 148.297C211.619 148.575 210.406 148.525 208.984 148.147C207.561 147.769 206.535 146.937 205.907 145.649C205.299 144.35 205.322 142.815 205.975 141.044C206.634 139.257 207.652 137.946 209.03 137.108C210.424 136.275 211.933 136.074 213.557 136.506C215.196 136.941 216.191 137.625 216.543 138.559C216.621 138.762 216.6 139.028 216.478 139.358C216.362 139.673 216.156 140.047 215.86 140.48C215.228 141.366 214.66 141.825 214.156 141.856C214.088 141.855 213.993 141.838 213.869 141.805C213.761 141.776 213.655 141.649 213.551 141.424C213.164 140.678 212.785 140.256 212.414 140.158C212.058 140.063 211.682 140.161 211.287 140.452C210.891 140.742 210.543 141.293 210.245 142.103ZM219.958 133.706C220.047 133.466 220.795 133.532 222.202 133.906C223.5 134.3 224.121 134.572 224.066 134.722L220.877 143.369L224.693 139.858C224.884 139.662 225.583 139.724 226.789 140.044C227.996 140.364 228.741 140.645 229.026 140.885L224.25 144.858L225.396 152.11C225.405 152.178 225.095 152.145 224.465 152.011C223.845 151.896 223.334 151.785 222.932 151.678C221.448 151.284 220.676 151.005 220.618 150.841L220.165 145.232L218.33 150.209C218.258 150.404 217.541 150.321 216.181 149.959C214.835 149.602 214.196 149.333 214.262 149.153L219.958 133.706ZM234.939 154.124C233.76 154.421 232.405 154.366 230.874 153.96C229.343 153.553 228.237 152.707 227.556 151.422C226.881 150.122 226.873 148.579 227.532 146.793C228.196 144.991 229.233 143.676 230.642 142.847C232.067 142.022 233.552 141.815 235.099 142.226C236.645 142.636 237.695 143.335 238.247 144.323C238.816 145.314 238.898 146.358 238.494 147.454C237.597 149.886 235.71 150.72 232.834 149.956L231.233 149.531C231.067 149.981 231.075 150.329 231.256 150.575C231.458 150.81 231.806 150.993 232.301 151.125C233.384 151.412 234.5 151.445 235.652 151.223C235.673 151.213 235.704 151.336 235.744 151.594C235.877 152.338 235.861 152.935 235.695 153.386C235.534 153.821 235.282 154.067 234.939 154.124ZM234.439 146.847C234.671 146.216 234.471 145.817 233.837 145.649C233.543 145.57 233.254 145.593 232.971 145.715C232.709 145.827 232.518 146.048 232.396 146.378L232.138 147.077L233.391 147.409C233.901 147.545 234.251 147.357 234.439 146.847ZM242.612 156.681C242.546 156.861 241.863 156.779 240.564 156.434C239.04 155.963 238.303 155.66 238.352 155.525L241.292 147.554L240.109 147.24C239.8 147.158 239.836 146.599 240.218 145.563C240.317 145.293 240.462 144.969 240.653 144.591C240.859 144.217 241.046 144.052 241.217 144.098L242.446 144.424L243.177 142.442C243.287 142.142 243.992 142.165 245.291 142.509C246.606 142.859 247.219 143.153 247.13 143.393L246.599 144.834L246.389 145.471L248.361 145.995C248.624 146.064 248.562 146.625 248.174 147.676C247.787 148.726 247.461 149.217 247.199 149.147L245.552 148.71L242.612 156.681ZM89.7787 143.911C89.7123 144.091 89.0296 144.009 87.7306 143.664C86.2063 143.193 85.4691 142.89 85.5189 142.755L88.4583 134.784L87.2753 134.47C86.966 134.388 87.0024 133.829 87.3843 132.793C87.484 132.523 87.629 132.199 87.8193 131.821C88.0251 131.447 88.213 131.282 88.3831 131.328L89.6125 131.654L90.3432 129.672C90.4539 129.372 91.1588 129.394 92.4577 129.739C93.7722 130.088 94.3851 130.383 94.2966 130.623L93.7651 132.064L93.5558 132.701L95.5275 133.225C95.7904 133.294 95.7281 133.855 95.3406 134.906C94.9531 135.956 94.6279 136.447 94.365 136.377L92.7181 135.94L89.7787 143.911ZM94.4211 143.834C93.8443 142.543 93.8935 140.982 94.5689 139.151C95.2442 137.319 96.2523 136.013 97.593 135.232C98.9492 134.455 100.447 134.284 102.086 134.719C103.725 135.154 104.833 136.017 105.41 137.307C105.987 138.598 105.938 140.159 105.262 141.99C104.587 143.822 103.579 145.128 102.238 145.909C100.897 146.691 99.4075 146.863 97.7683 146.428C96.1291 145.993 95.0134 145.128 94.4211 143.834ZM100.699 138.479C99.8334 138.249 99.1458 138.825 98.6365 140.206C98.1272 141.587 98.3056 142.393 99.1716 142.623C100.053 142.857 100.748 142.283 101.258 140.902C101.767 139.521 101.581 138.713 100.699 138.479ZM106.314 146.991C105.737 145.701 105.786 144.14 106.461 142.309C107.137 140.477 108.145 139.171 109.486 138.39C110.842 137.613 112.339 137.442 113.979 137.877C115.618 138.312 116.726 139.175 117.303 140.465C117.879 141.756 117.83 143.317 117.155 145.148C116.48 146.98 115.471 148.286 114.131 149.067C112.79 149.848 111.3 150.021 109.661 149.586C108.022 149.151 106.906 148.286 106.314 146.991ZM112.592 141.637C111.726 141.407 111.038 141.983 110.529 143.364C110.02 144.745 110.198 145.551 111.064 145.781C111.946 146.015 112.641 145.441 113.15 144.06C113.66 142.679 113.473 141.871 112.592 141.637ZM121.007 152.154C120.957 152.289 120.144 152.147 118.566 151.728C117.335 151.385 116.738 151.161 116.777 151.055L122.432 135.721C122.515 135.496 123.306 135.582 124.806 135.981C126.104 136.375 126.734 136.624 126.695 136.729L121.007 152.154ZM137.96 156.73C137.921 156.835 137.237 156.711 135.907 156.358C134.593 156.009 133.96 155.767 134.01 155.632L136.427 149.079C136.703 148.328 136.587 147.885 136.076 147.75C135.813 147.68 135.405 147.753 134.85 147.968L132.193 155.174C132.137 155.324 131.445 155.222 130.115 154.869C128.8 154.52 128.174 154.263 128.234 154.098L130.95 146.735L130.37 146.581C129.859 146.445 129.795 145.859 130.177 144.824C130.349 144.358 130.616 143.91 130.979 143.479C131.47 142.884 131.994 142.661 132.55 142.808C133.107 142.956 133.588 143.24 133.993 143.661C134.414 144.086 134.631 144.44 134.645 144.724C135.908 144.153 137.12 144.022 138.28 144.33C139.455 144.642 140.268 145.245 140.719 146.14C141.815 145.656 142.95 145.57 144.125 145.882C146.677 146.559 147.396 148.407 146.283 151.424L143.759 158.27C143.72 158.375 143.036 158.251 141.706 157.898C140.392 157.549 139.759 157.307 139.809 157.171L142.226 150.619C142.502 149.868 142.386 149.425 141.875 149.29C141.597 149.216 141.18 149.286 140.626 149.502L137.96 156.73ZM150.167 151.12C150.011 150.255 150.018 149.589 150.19 149.124C150.367 148.644 150.612 148.371 150.925 148.306C151.945 148.164 153.22 148.297 154.751 148.703C156.297 149.114 157.257 149.756 157.631 150.63C158.011 151.489 157.949 152.602 157.445 153.968L156.133 157.526L156.922 157.735C157.184 157.805 157.33 158.008 157.359 158.346C157.402 158.687 157.328 159.12 157.134 159.646C156.94 160.171 156.61 160.652 156.143 161.088C155.692 161.529 155.235 161.688 154.771 161.565C153.936 161.343 153.343 160.947 152.994 160.376C152.828 160.134 152.73 159.869 152.701 159.581C151.668 160.263 150.402 160.405 148.902 160.006C147.773 159.706 146.966 159.064 146.481 158.078C145.996 157.092 145.949 156.066 146.342 155C147.245 152.553 149.204 151.73 152.219 152.531L153.495 152.869L153.578 152.644C153.722 152.254 153.744 151.988 153.643 151.846C153.564 151.693 153.284 151.553 152.805 151.425C152.217 151.269 151.338 151.168 150.167 151.12ZM150.495 155.757C150.373 156.087 150.372 156.367 150.491 156.596C150.615 156.81 150.817 156.955 151.095 157.029C151.389 157.107 151.694 157.064 152.009 156.9L152.648 155.166L151.998 154.994C151.256 154.797 150.755 155.051 150.495 155.757ZM162.572 163.241C162.534 163.346 161.958 163.25 160.844 162.955C159.314 162.499 158.572 162.211 158.616 162.091L161.306 154.795L160.703 154.635C160.301 154.528 160.16 154.128 160.28 153.435C160.321 153.232 160.377 153.032 160.449 152.837C160.621 152.372 160.885 151.931 161.242 151.515C161.764 150.928 162.319 150.713 162.907 150.869C163.494 151.025 163.97 151.3 164.335 151.693C164.699 152.087 164.909 152.439 164.964 152.75C166.237 152.198 167.546 152.101 168.891 152.458C170.237 152.816 171.081 153.427 171.424 154.293C171.767 155.158 171.642 156.394 171.05 158.001L168.559 164.756C168.492 164.936 167.794 164.85 166.464 164.497C165.15 164.148 164.526 163.883 164.592 163.703L166.992 157.195C167.269 156.445 167.136 155.997 166.595 155.854C166.441 155.813 166.199 155.823 165.871 155.884C165.548 155.93 165.337 155.973 165.238 156.012L162.572 163.241ZM174.436 154.326C174.497 154.161 175.193 154.255 176.523 154.608C177.853 154.961 178.487 155.221 178.426 155.386L176.002 161.961C175.725 162.712 175.834 163.153 176.329 163.284C176.7 163.382 177.176 163.336 177.756 163.144L180.421 155.915C180.476 155.765 181.161 155.865 182.476 156.214C183.79 156.563 184.42 156.812 184.364 156.963L181.641 164.348L182.244 164.509C182.77 164.648 182.853 165.206 182.493 166.182C182.31 166.677 182.017 167.151 181.612 167.604C181.059 168.182 180.52 168.402 179.994 168.262C178.958 167.987 178.345 167.371 178.154 166.414L178.123 166.43C176.88 166.991 175.718 167.127 174.636 166.839C173.136 166.441 172.163 165.787 171.717 164.878C171.277 163.953 171.367 162.65 171.987 160.969L174.436 154.326ZM187.543 161.045C187.387 160.18 187.395 159.514 187.567 159.049C187.744 158.569 187.989 158.296 188.301 158.23C189.321 158.089 190.597 158.222 192.128 158.628C193.674 159.039 194.634 159.681 195.008 160.555C195.387 161.414 195.325 162.527 194.821 163.893L193.509 167.451L194.298 167.66C194.561 167.73 194.707 167.933 194.735 168.27C194.779 168.612 194.704 169.045 194.51 169.571C194.317 170.096 193.987 170.577 193.52 171.013C193.069 171.454 192.611 171.613 192.147 171.489C191.312 171.268 190.72 170.871 190.37 170.301C190.205 170.059 190.107 169.794 190.077 169.506C189.045 170.188 187.779 170.329 186.279 169.931C185.15 169.631 184.343 168.989 183.857 168.003C183.372 167.017 183.326 165.991 183.719 164.925C184.621 162.478 186.58 161.655 189.596 162.456L190.871 162.794L190.955 162.569C191.098 162.179 191.12 161.913 191.02 161.771C190.94 161.618 190.661 161.478 190.182 161.35C189.594 161.194 188.715 161.093 187.543 161.045ZM187.871 165.681C187.75 166.012 187.748 166.292 187.867 166.521C187.992 166.735 188.194 166.88 188.472 166.953C188.766 167.031 189.07 166.989 189.385 166.825L190.025 165.091L189.375 164.919C188.633 164.722 188.132 164.976 187.871 165.681ZM199.339 172.954C199.289 173.089 198.476 172.947 196.899 172.529C195.667 172.185 195.071 171.961 195.109 171.856L200.764 156.521C200.847 156.296 201.638 156.382 203.138 156.781C204.436 157.175 205.066 157.424 205.027 157.529L199.339 172.954ZM205.659 174.632C205.61 174.767 204.796 174.626 203.219 174.207C201.987 173.863 201.391 173.639 201.429 173.534L207.084 158.199C207.167 157.974 207.959 158.061 209.459 158.459C210.756 158.853 211.386 159.103 211.347 159.208L205.659 174.632ZM210.99 164.008C211.05 163.843 211.785 163.947 213.192 164.321C214.614 164.698 215.321 164.969 215.312 165.131L215.023 170.889L218.6 165.954C218.706 165.851 219.207 165.918 220.104 166.156C222.161 166.702 223.107 167.061 222.942 167.231L211.936 180.848C211.887 180.934 211.446 180.866 210.61 180.644C209.791 180.427 209.036 180.194 208.347 179.945C207.653 179.711 207.334 179.56 207.393 179.493L211.155 175.301L210.99 164.008ZM225.721 174.966C225.688 175.056 225.115 174.953 224.001 174.657C222.903 174.366 222.368 174.182 222.396 174.107L226.025 162.883C226.07 162.763 226.796 162.89 228.203 163.263C229.625 163.641 230.317 163.882 230.279 163.987L225.721 174.966ZM221.396 175.3C221.434 175.195 222.165 175.332 223.588 175.709C225.026 176.091 225.728 176.327 225.695 176.417L224.5 179.66C224.444 179.81 223.697 179.694 222.259 179.312C220.837 178.934 220.142 178.701 220.175 178.61L221.396 175.3Z" fill="#4C4C4C"/>
<path d="M133 176.202C133.985 175.702 134.379 174.499 133.88 173.514C133.38 172.528 132.177 172.135 131.191 172.634L133 176.202ZM56.1951 211.313C55.8516 212.363 56.4242 213.493 57.4741 213.836L74.5818 219.433C75.6317 219.776 76.7611 219.204 77.1046 218.154C77.448 217.104 76.8754 215.975 75.8256 215.631L60.6186 210.656L65.5936 195.449C65.937 194.399 65.3644 193.27 64.3146 192.927C63.2647 192.583 62.1353 193.156 61.7918 194.206L56.1951 211.313ZM131.191 172.634L57.1915 210.151L59.0003 213.719L133 176.202L131.191 172.634Z" fill="#4C4C4C"/>
</svg>
