<svg width="235" height="53" viewBox="0 0 235 53" fill="none" xmlns="http://www.w3.org/2000/svg">
<rect x="1" y="1" width="233" height="50.2222" rx="25.1111" fill="#50FF4D" stroke="#4C4C4C" stroke-width="2"/>
<path d="M36.8236 16.96C36.8236 16.5867 37.8316 16.4 39.8476 16.4C41.8822 16.4 42.8996 16.5867 42.8996 16.96V29.812C42.8996 31.716 42.2182 33.2747 40.8556 34.488C39.4929 35.6827 37.6076 36.28 35.1996 36.28C32.8102 36.28 30.8596 35.664 29.3476 34.432C27.8542 33.1813 27.1076 31.5013 27.1076 29.392V16.988C27.1076 16.6147 28.1156 16.428 30.1316 16.428C32.1662 16.428 33.1836 16.6147 33.1836 16.988V29.616C33.1836 29.9893 33.3796 30.288 33.7716 30.512C34.1822 30.736 34.6116 30.848 35.0596 30.848C35.5076 30.848 35.9089 30.7453 36.2636 30.54C36.6369 30.3347 36.8236 30.0267 36.8236 29.616V16.96ZM45.9776 29.168C46.3323 29.448 46.9389 29.8307 47.7976 30.316C48.6749 30.8013 49.5056 31.044 50.2896 31.044C51.0923 31.044 51.4936 30.736 51.4936 30.12C51.4936 29.84 51.3816 29.5973 51.1576 29.392C50.9336 29.168 50.5229 28.916 49.9256 28.636C49.3283 28.356 48.8803 28.1413 48.5816 27.992C48.2829 27.824 47.8816 27.5627 47.3776 27.208C46.8923 26.8347 46.5189 26.452 46.2576 26.06C45.5109 24.996 45.1376 23.6427 45.1376 22C45.1376 20.3573 45.7443 18.976 46.9576 17.856C48.1896 16.7173 49.7949 16.148 51.7736 16.148C53.1176 16.148 54.3589 16.2973 55.4976 16.596C56.6363 16.876 57.2243 17.2493 57.2616 17.716C57.2616 17.772 57.2616 17.828 57.2616 17.884C57.2616 18.5373 57.0563 19.368 56.6456 20.376C56.2349 21.3653 55.9456 21.916 55.7776 22.028C54.5829 21.412 53.5096 21.104 52.5576 21.104C51.6243 21.104 51.1576 21.44 51.1576 22.112C51.1576 22.5227 51.5029 22.8867 52.1936 23.204C52.3429 23.2787 52.5576 23.3813 52.8376 23.512C53.1176 23.6427 53.4349 23.8013 53.7896 23.988C54.1629 24.156 54.5549 24.38 54.9656 24.66C55.3949 24.9213 55.8523 25.276 56.3376 25.724C57.3269 26.6573 57.8216 27.8893 57.8216 29.42C57.8216 31.4173 57.2709 33.0507 56.1696 34.32C55.0683 35.5893 53.3696 36.2427 51.0736 36.28C49.9536 36.28 48.9363 36.1867 48.0216 36C47.1256 35.8133 46.3416 35.4493 45.6696 34.908C44.9976 34.3667 44.6616 33.7133 44.6616 32.948C44.6616 32.1827 44.8016 31.4267 45.0816 30.68C45.3616 29.9147 45.6603 29.4107 45.9776 29.168ZM69.2246 24.184C69.5793 24.184 69.7566 24.8373 69.7566 26.144C69.7566 26.536 69.7099 27.0027 69.6166 27.544C69.5419 28.0667 69.3926 28.328 69.1686 28.328H65.6126V31.128H70.7646C71.0819 31.128 71.2966 31.5387 71.4086 32.36C71.4646 32.7147 71.4926 33.0973 71.4926 33.508C71.4926 33.9 71.4366 34.4133 71.3246 35.048C71.2126 35.6827 71.0259 36 70.7646 36H61.1886C60.4793 36 60.1246 35.7107 60.1246 35.132V17.128C60.1246 16.6427 60.3393 16.4 60.7686 16.4H70.7926C71.1846 16.4 71.3806 17.2307 71.3806 18.892C71.3806 20.5347 71.1846 21.356 70.7926 21.356H65.6126V24.184H69.2246ZM87.2185 16.148C88.5812 16.148 89.7759 16.344 90.8025 16.736C91.8479 17.1093 92.3705 17.6227 92.3705 18.276C92.3705 18.9293 92.1185 19.7413 91.6145 20.712C91.1292 21.664 90.7185 22.14 90.3825 22.14C90.2892 22.14 90.1772 22.0933 90.0465 22C89.9345 21.888 89.6545 21.776 89.2065 21.664C88.7772 21.5333 88.4039 21.468 88.0865 21.468C87.0039 21.468 86.1265 21.8507 85.4545 22.616C84.8012 23.3813 84.4745 24.5573 84.4745 26.144C84.4745 27.712 84.8105 28.8787 85.4825 29.644C86.1732 30.4093 87.0412 30.792 88.0865 30.792C88.5159 30.792 88.9919 30.736 89.5145 30.624C90.0559 30.4933 90.4385 30.316 90.6625 30.092C90.6999 30.0547 90.7745 30.036 90.8865 30.036C90.9985 30.036 91.2039 30.2507 91.5025 30.68C91.8199 31.0907 92.1092 31.6413 92.3705 32.332C92.6319 33.004 92.7625 33.5267 92.7625 33.9C92.7625 34.628 92.2025 35.2067 91.0825 35.636C89.9625 36.0653 88.6372 36.28 87.1065 36.28C84.6425 36.28 82.6172 35.412 81.0305 33.676C79.4439 31.94 78.6505 29.4947 78.6505 26.34C78.6505 23.1667 79.4625 20.6747 81.0865 18.864C82.7292 17.0533 84.7732 16.148 87.2185 16.148ZM103.222 36.28C100.609 36.28 98.4712 35.4213 96.8099 33.704C95.1672 31.9867 94.3459 29.4853 94.3459 26.2C94.3459 22.896 95.1765 20.3947 96.8379 18.696C98.5179 16.9973 100.674 16.148 103.306 16.148C105.957 16.148 108.094 16.988 109.718 18.668C111.342 20.3293 112.154 22.8587 112.154 26.256C112.154 29.6347 111.323 32.1547 109.662 33.816C108.001 35.4587 105.854 36.28 103.222 36.28ZM103.25 21.524C102.354 21.524 101.598 21.9347 100.982 22.756C100.385 23.5773 100.086 24.7347 100.086 26.228C100.086 27.7027 100.375 28.8413 100.954 29.644C101.533 30.428 102.289 30.82 103.222 30.82C104.174 30.82 104.939 30.4187 105.518 29.616C106.115 28.8133 106.414 27.6653 106.414 26.172C106.414 24.6787 106.106 23.5307 105.49 22.728C104.893 21.9253 104.146 21.524 103.25 21.524ZM114.122 34.348V16.932C114.122 16.54 115.065 16.344 116.95 16.344C118.854 16.344 119.806 16.54 119.806 16.932V30.652H124.118C124.454 30.652 124.687 31.0907 124.818 31.968C124.874 32.3973 124.902 32.836 124.902 33.284C124.902 33.732 124.874 34.1893 124.818 34.656C124.669 35.552 124.426 36 124.09 36H115.466C115.055 36 114.729 35.832 114.486 35.496C114.243 35.16 114.122 34.7773 114.122 34.348ZM134.886 36.28C132.273 36.28 130.135 35.4213 128.474 33.704C126.831 31.9867 126.01 29.4853 126.01 26.2C126.01 22.896 126.841 20.3947 128.502 18.696C130.182 16.9973 132.338 16.148 134.97 16.148C137.621 16.148 139.758 16.988 141.382 18.668C143.006 20.3293 143.818 22.8587 143.818 26.256C143.818 29.6347 142.987 32.1547 141.326 33.816C139.665 35.4587 137.518 36.28 134.886 36.28ZM134.914 21.524C134.018 21.524 133.262 21.9347 132.646 22.756C132.049 23.5773 131.75 24.7347 131.75 26.228C131.75 27.7027 132.039 28.8413 132.618 29.644C133.197 30.428 133.953 30.82 134.886 30.82C135.838 30.82 136.603 30.4187 137.182 29.616C137.779 28.8133 138.078 27.6653 138.078 26.172C138.078 24.6787 137.77 23.5307 137.154 22.728C136.557 21.9253 135.81 21.524 134.914 21.524ZM151.414 35.608C151.414 35.9067 150.527 36.056 148.754 36.056C146.962 36.056 146.066 35.916 146.066 35.636V17.38C146.066 16.7267 146.411 16.4 147.102 16.4H152.45C157.359 16.4 159.814 18.3133 159.814 22.14C159.814 23.2973 159.59 24.352 159.142 25.304C158.694 26.2373 158.059 26.984 157.238 27.544L160.766 33.424C160.617 33.872 160.131 34.3853 159.31 34.964C158.19 35.7667 157.266 36.168 156.538 36.168C155.81 36.168 155.269 35.9067 154.914 35.384L152.282 29.252H151.414V35.608ZM151.414 21.356V25.556H151.554C153.327 25.556 154.214 24.8187 154.214 23.344C154.214 22.672 154.037 22.1773 153.682 21.86C153.346 21.524 152.786 21.356 152.002 21.356H151.414ZM164.43 31.184V21.216H162.442C162.124 21.216 161.9 20.8147 161.77 20.012C161.714 19.62 161.686 19.2187 161.686 18.808C161.686 18.3973 161.714 17.996 161.77 17.604C161.9 16.8013 162.124 16.4 162.442 16.4H171.85C172.167 16.4 172.382 16.8013 172.494 17.604C172.568 17.996 172.606 18.3973 172.606 18.808C172.606 19.2187 172.568 19.62 172.494 20.012C172.382 20.8147 172.167 21.216 171.85 21.216H169.974V31.184H171.934C172.251 31.184 172.475 31.5853 172.606 32.388C172.68 32.78 172.718 33.1813 172.718 33.592C172.718 34.0027 172.68 34.404 172.606 34.796C172.475 35.5987 172.251 36 171.934 36H162.498C162.18 36 161.966 35.5987 161.854 34.796C161.779 34.404 161.742 34.0027 161.742 33.592C161.742 33.1813 161.779 32.78 161.854 32.388C161.966 31.5853 162.18 31.184 162.498 31.184H164.43ZM189.93 35.384C189.93 35.776 189.052 35.972 187.298 35.972C185.543 35.972 184.591 35.832 184.442 35.552L179.766 26.816V35.524C179.766 35.86 178.898 36.028 177.162 36.028C175.444 36.028 174.586 35.86 174.586 35.524V16.792C174.586 16.512 175.323 16.372 176.798 16.372C177.376 16.372 178.048 16.428 178.814 16.54C179.598 16.6333 180.074 16.82 180.242 17.1L184.722 25.724V16.932C184.722 16.5773 185.59 16.4 187.326 16.4C189.062 16.4 189.93 16.5773 189.93 16.932V35.384ZM203.102 30.148L203.158 26.34C203.158 26.0787 203.428 25.9107 203.97 25.836C204.511 25.7427 204.959 25.696 205.314 25.696L206.406 25.78C207.115 25.892 207.47 26.088 207.47 26.368L207.358 35.132C206.984 35.3933 206.228 35.6547 205.09 35.916C203.97 36.1587 202.682 36.28 201.226 36.28C198.519 36.28 196.335 35.4027 194.674 33.648C193.012 31.8933 192.182 29.3173 192.182 25.92C192.182 23.0267 192.994 20.6747 194.618 18.864C196.242 17.0533 198.491 16.148 201.366 16.148C202.672 16.148 203.848 16.2787 204.894 16.54C205.958 16.7827 206.686 17.1187 207.078 17.548C207.096 17.6973 207.106 17.9773 207.106 18.388C207.106 18.7987 206.966 19.3867 206.686 20.152C206.406 20.8987 206.088 21.4587 205.734 21.832C205.379 22.2053 205.118 22.392 204.95 22.392C204.8 22.392 204.632 22.3267 204.446 22.196C204.278 22.0467 203.932 21.8973 203.41 21.748C202.887 21.58 202.383 21.496 201.898 21.496C200.74 21.496 199.798 21.8693 199.07 22.616C198.36 23.3627 198.006 24.52 198.006 26.088C198.006 27.656 198.37 28.8507 199.098 29.672C199.844 30.4747 200.694 30.876 201.646 30.876C202.616 30.876 203.102 30.6333 203.102 30.148Z" fill="black"/>
</svg>
